<svg xmlns="http://www.w3.org/2000/svg" viewBox="0 0 443.8 185"><title>logo-5</title><path d="M113,77.5a16.26,16.26,0,0,1,6.8,1.4,18.82,18.82,0,0,1,5.6,3.7,16.1,16.1,0,0,1,3.7,5.6,17.6,17.6,0,0,1,1.4,6.8v16.9h-6.7v-3.2a17.72,17.72,0,0,1-4.9,2.6A17.4,17.4,0,0,1,95.8,94.9a18,18,0,0,1,1.4-6.8,17.44,17.44,0,0,1,9.2-9.3A16.2,16.2,0,0,1,113,77.5Zm0,28.1a11,11,0,0,0,7.5-3.2,11.34,11.34,0,0,0,2.3-3.4,9.78,9.78,0,0,0,.9-4.1,10.23,10.23,0,0,0-.9-4.2,10.83,10.83,0,0,0-5.7-5.7,10.85,10.85,0,0,0-8.3,0,9.76,9.76,0,0,0-3.4,2.3,11.34,11.34,0,0,0-2.3,3.4,9.9,9.9,0,0,0-.9,4.2,10.9,10.9,0,0,0,6.6,9.8,10.59,10.59,0,0,0,4.2.9Z"/><path d="M141.8,54.5h6.7v57h-6.7Z"/><path d="M177.1,77.5a17,17,0,0,1,6.7,1.3A17.26,17.26,0,0,1,193,88a17.55,17.55,0,0,1,0,13.5,17.26,17.26,0,0,1-9.2,9.2,17.55,17.55,0,0,1-13.5,0,18.37,18.37,0,0,1-5.5-3.7,17.19,17.19,0,0,1-3.7-5.5,15.42,15.42,0,0,1-1.3-6.7V54.4h6.7l.1,26.6a17.15,17.15,0,0,1,10.5-3.5Zm0,27.8a11.5,11.5,0,0,0,4.1-.8A10.54,10.54,0,0,0,173,85.1a9.76,9.76,0,0,0-3.4,2.3,12.27,12.27,0,0,0-2.3,3.3,9.78,9.78,0,0,0-.9,4.1v.1a11,11,0,0,0,3.2,7.5,11.34,11.34,0,0,0,3.4,2.3,31.22,31.22,0,0,0,4.1.6Z"/><path d="M224.8,96.9H211.6a10.34,10.34,0,0,0,3.7,5.9,11.67,11.67,0,0,0,3.1,1.7,11.33,11.33,0,0,0,3.6.6,10.7,10.7,0,0,0,4.3-.9,11,11,0,0,0,3.5-2.6h7.9a11.4,11.4,0,0,1-1,1.9c-.4.6-.8,1.2-1.2,1.7a17.17,17.17,0,0,1-29.4-3.9,17.55,17.55,0,0,1,0-13.5,17.26,17.26,0,0,1,9.2-9.2,17.64,17.64,0,0,1,14.4.4,17.42,17.42,0,0,1,5.9,4.9,16.88,16.88,0,0,1,3.7,10.6,16.35,16.35,0,0,1-.2,2.2l-14.3.2ZM222,84.2a10.46,10.46,0,0,0-5.7,1.6,10.11,10.11,0,0,0-3.8,4.4h19.1a8.79,8.79,0,0,0-.6-1c-.2-.3-.4-.7-.6-1a10.62,10.62,0,0,0-3.7-2.9,9.84,9.84,0,0,0-4.7-1.1Z"/><path d="M272.7,80a14.52,14.52,0,0,1,3.8,3.6l-3.8,3-1.4,1.2a7.29,7.29,0,0,0-2.9-2.6,7.56,7.56,0,0,0-3.9-1,8.66,8.66,0,0,0-3.2.6,6.77,6.77,0,0,0-2.6,1.8,12,12,0,0,0-1.8,2.6,7,7,0,0,0-.6,3.2v19.4h-6.7V77.5h6.7V80a13.84,13.84,0,0,1,3.9-1.8,14.68,14.68,0,0,1,8.8,0A15.74,15.74,0,0,1,272.7,80Z"/><path d="M302.5,74.6h-6.3V112h-6.7V74.6h-6.3V67.9h6.3V55h6.7V67.8h6.3Z"/><path d="M330,77.4a17,17,0,0,1,6.7,1.3,17.26,17.26,0,0,1,9.2,9.2,17.55,17.55,0,0,1,0,13.5,17.26,17.26,0,0,1-9.2,9.2,17.55,17.55,0,0,1-13.5,0,17.26,17.26,0,0,1-9.2-9.2,17.55,17.55,0,0,1,0-13.5,17.26,17.26,0,0,1,9.2-9.2A17.87,17.87,0,0,1,330,77.4Zm0,27.8a11.5,11.5,0,0,0,4.1-.8,9.76,9.76,0,0,0,3.4-2.3,9.49,9.49,0,0,0,2.2-3.4,10.6,10.6,0,0,0,0-8.2A10.47,10.47,0,0,0,326,84.9a9.76,9.76,0,0,0-3.4,2.3,11.34,11.34,0,0,0-2.3,3.4,10.6,10.6,0,0,0,0,8.2,9.76,9.76,0,0,0,2.3,3.4,11.16,11.16,0,0,0,7.4,3Z"/><circle cx="50.6" cy="94.3" r="7.6"/><circle cx="393.3" cy="94.3" r="7.6"/><path d="M156.8,136.6l-.3.3a.6.6,0,0,1-.4.1c-.2,0-.3,0-.4-.1l-.5-.3a4.88,4.88,0,0,0-.7-.3,2.77,2.77,0,0,0-.9-.1,2,2,0,0,0-1.3.4,1.28,1.28,0,0,0-.4,1,.71.71,0,0,0,.3.6,1.61,1.61,0,0,0,.7.4,3.18,3.18,0,0,0,.9.3l1.1.4a5.36,5.36,0,0,1,1.1.5,3.11,3.11,0,0,1,.9.7,3.59,3.59,0,0,1,.7,1,3.19,3.19,0,0,1,.3,1.4,4.67,4.67,0,0,1-.3,1.7,4.19,4.19,0,0,1-.9,1.4,3.77,3.77,0,0,1-1.5.9,4.43,4.43,0,0,1-2,.3,4.87,4.87,0,0,1-1.2-.1,5.64,5.64,0,0,1-1.2-.4,3.7,3.7,0,0,1-1.1-.5,5.5,5.5,0,0,1-.9-.7l.9-1.4.3-.3a.6.6,0,0,1,.4-.1.76.76,0,0,1,.5.2l.6.4c.3.1.5.3.8.4a3.59,3.59,0,0,0,1.1.2,2,2,0,0,0,1.3-.4,1.61,1.61,0,0,0,.5-1.1.91.91,0,0,0-.3-.7,1.79,1.79,0,0,0-.7-.5,3.18,3.18,0,0,0-.9-.3l-1.1-.3c-.4-.1-.7-.3-1.1-.4a3.11,3.11,0,0,1-.9-.7,3.59,3.59,0,0,1-.7-1,4,4,0,0,1-.3-1.5,3.19,3.19,0,0,1,.3-1.4,2.73,2.73,0,0,1,.9-1.2,4.19,4.19,0,0,1,1.4-.9,6.28,6.28,0,0,1,1.9-.3,4.87,4.87,0,0,1,1.2.1l1.1.3c.3.1.7.3,1,.4s.5.4.8.6Z"/><path d="M183.2,136.3h-3.7V147h-3V136.3h-3.8v-2.4h10.4Z"/><path d="M204.6,144.6a4.25,4.25,0,0,0,1.1-.2,1.56,1.56,0,0,0,.8-.6,4.05,4.05,0,0,0,.5-.9,5,5,0,0,0,.2-1.2V134h3v7.7a5.38,5.38,0,0,1-.4,2.2,3.86,3.86,0,0,1-1.1,1.7,4.18,4.18,0,0,1-1.8,1.1,7.55,7.55,0,0,1-4.7,0,4.89,4.89,0,0,1-2.9-2.9,5.38,5.38,0,0,1-.4-2.2v-7.7h3v7.7a5,5,0,0,0,.2,1.2,2.62,2.62,0,0,0,.5.9,2.41,2.41,0,0,0,.8.6A2.66,2.66,0,0,0,204.6,144.6Z"/><path d="M238.8,140.5a7.51,7.51,0,0,1-.5,2.6,6.43,6.43,0,0,1-3.5,3.5,8.68,8.68,0,0,1-2.8.5h-5.1V134H232a9.18,9.18,0,0,1,2.8.5,6.43,6.43,0,0,1,3.5,3.5A6.55,6.55,0,0,1,238.8,140.5Zm-3.1,0a5.66,5.66,0,0,0-.3-1.8,3.29,3.29,0,0,0-.7-1.3,2,2,0,0,0-1.2-.8,4,4,0,0,0-1.5-.3h-2v8.4h2a3.65,3.65,0,0,0,1.5-.3,8.34,8.34,0,0,0,1.2-.8,3.29,3.29,0,0,0,.7-1.3A5.66,5.66,0,0,0,235.7,140.5Z"/><path d="M258,147h-3V133.9h3Z"/><path d="M287.7,140.5a7.51,7.51,0,0,1-.5,2.6,6.43,6.43,0,0,1-3.5,3.5,8.09,8.09,0,0,1-5.6,0,6.43,6.43,0,0,1-3.5-3.5,7,7,0,0,1,0-5.3,6.43,6.43,0,0,1,3.5-3.5,8.68,8.68,0,0,1,2.8-.5,9.18,9.18,0,0,1,2.8.5,6,6,0,0,1,3.5,3.5A8.57,8.57,0,0,1,287.7,140.5Zm-3.1,0a5.66,5.66,0,0,0-.3-1.8,5.39,5.39,0,0,0-.7-1.3,2.84,2.84,0,0,0-1.1-.8,4,4,0,0,0-1.5-.3,4.53,4.53,0,0,0-1.6.3,8.34,8.34,0,0,0-1.2.8,3.29,3.29,0,0,0-.7,1.3,6.92,6.92,0,0,0,0,3.5,3.29,3.29,0,0,0,.7,1.3,2.55,2.55,0,0,0,1.2.8,4.15,4.15,0,0,0,1.6.3,3.65,3.65,0,0,0,1.5-.3,4.44,4.44,0,0,0,1.1-.8,3.29,3.29,0,0,0,.7-1.3A4.67,4.67,0,0,0,284.6,140.5Z"/><path d="M424.7,185H0V11.7H424.7ZM3.3,181.7H421.4V15H3.3Z"/><path d="M443.8,173.3H19.1V0H443.8V173.3ZM22.4,170H440.5V3.3H22.4Z"/></svg>