<svg xmlns="http://www.w3.org/2000/svg" viewBox="0 0 387.1 248.5"><title>logo-9</title><path d="M385.7,132.1h0a11.84,11.84,0,0,1-5.9,10.3l-181,104.5a12,12,0,0,1-11.9,0L5.9,142.4a11.8,11.8,0,0,1-4.3-16.2,11.11,11.11,0,0,1,4.3-4.3l181-104.5a12,12,0,0,1,11.9,0l181,104.5A11.68,11.68,0,0,1,385.7,132.1Zm-382,0a8,8,0,0,0,4,7L188.8,243.6a8.14,8.14,0,0,0,8,0L377.9,139.1a8,8,0,0,0,3-10.9,7.86,7.86,0,0,0-3-3L196.8,20.6a8.14,8.14,0,0,0-8,0L7.8,125.1a8.07,8.07,0,0,0-4.1,7Z"/><path d="M387.1,115.4a10.76,10.76,0,0,1-5.5,9.4l-181,104.5a11.13,11.13,0,0,1-10.9,0L8.7,124.9a10.47,10.47,0,0,1-5.4-9.4h0a10.88,10.88,0,0,1,5.4-9.4L189.7,1.6a11.13,11.13,0,0,1,10.9,0l181,104.5A10.49,10.49,0,0,1,387.1,115.4Zm-382,0a9,9,0,0,0,4.5,7.8l181,104.5a9,9,0,0,0,9,0l181-104.5a9,9,0,0,0,3.3-12.3,8.72,8.72,0,0,0-3.3-3.3L199.6,3.1a9,9,0,0,0-9,0L9.6,107.6a9,9,0,0,0-4.5,7.8Z"/><path d="M100,126.1l12.8,16.3h-6.4L97,131.6l-6.4,10.9H85.5V103h5.1v29.3L106.7,103H113Z"/><path d="M124.9,136.2l-2.8,6.2h-6l17.1-39.7,17.2,39.7h-6.2l-2.7-6.2Zm8.4-18.9-6,13.8h12Z"/><path d="M174.3,102.8v5.3L161,108l.1,34.5h-5.6l.1-34.5H142.5v-5.2Z"/><path d="M200.5,137.2v5.3H176.9V102.9h23.3v5.3H182.3v12.2h14.2v5.3H182.3v11.6Z"/><path d="M232.7,142.3l-6.1.1v-.1l-6.7-12.9a8.6,8.6,0,0,1-1.6.1h-6v13H207l.1-39.6h11.3a13.33,13.33,0,0,1,7.1,24.4Zm-6.8-26.1a7.94,7.94,0,0,0-8-7.9h-5.7v15.9H218a8.21,8.21,0,0,0,7.9-8Z"/><path d="M242.5,142.5H237V102.9h5.5Z"/><path d="M275.1,102.9v39.6h-6.2l-17.4-29.9v29.9h-5.4V102.9h6.3l17.4,30.6V102.9Z"/><path d="M302.5,137.2v5.3H279V102.9h23.3v5.3H284.4v12.2h14.2v5.3H284.4v11.6Z"/><circle cx="45.5" cy="127.2" r="6.6"/><circle cx="342" cy="127.2" r="6.6"/><path d="M142,171.6c-.1.1-.1.2-.3.3a.37.37,0,0,1-.3.1.6.6,0,0,1-.4-.1l-.5-.3-.6-.3a2,2,0,0,0-.8-.1,2,2,0,0,0-1.1.3,1.27,1.27,0,0,0-.4.9,1.42,1.42,0,0,0,.2.6,2.09,2.09,0,0,0,.6.4c.3.1.5.2.8.3l.9.3a3.55,3.55,0,0,1,.9.4,1.56,1.56,0,0,1,.8.6,3.49,3.49,0,0,1,.6.9,5,5,0,0,1,.2,1.2,4,4,0,0,1-.3,1.5,2.55,2.55,0,0,1-.8,1.2,3.53,3.53,0,0,1-1.3.8,4.67,4.67,0,0,1-1.7.3,4.1,4.1,0,0,1-1.1-.1l-1.1-.3a4.67,4.67,0,0,1-1-.5c-.3-.2-.5-.4-.8-.6l.8-1.2c.1-.1.1-.2.2-.2a.37.37,0,0,1,.3-.1c.2,0,.3.1.5.1l.5.3c.2.1.5.2.7.3a1.41,1.41,0,0,0,.9.1,2,2,0,0,0,1.1-.3,1.28,1.28,0,0,0,.4-1,1.07,1.07,0,0,0-.2-.6,2.09,2.09,0,0,0-.6-.4c-.3-.1-.5-.2-.8-.3l-.9-.3a3.55,3.55,0,0,1-.9-.4,1.56,1.56,0,0,1-.8-.6,4.7,4.7,0,0,1-.6-.9,3,3,0,0,1-.2-1.3,2.66,2.66,0,0,1,.3-1.2,2.84,2.84,0,0,1,.8-1.1,8.34,8.34,0,0,1,1.2-.8,4.67,4.67,0,0,1,1.7-.3,3.4,3.4,0,0,1,1,.1c.3.1.6.1.9.2a2,2,0,0,1,.8.4,3,3,0,0,1,.7.5Z"/><path d="M164.9,171.4h-3.2v9.2h-2.6v-9.2H156v-2.1h9Z"/><path d="M183.3,178.6a2.92,2.92,0,0,0,.9-.2,1.79,1.79,0,0,0,.7-.5,2,2,0,0,0,.4-.8,2,2,0,0,0,.1-1.1v-6.7H188V176a5.82,5.82,0,0,1-.3,1.9,4,4,0,0,1-1,1.5,4.92,4.92,0,0,1-1.5,1,5.79,5.79,0,0,1-4.1,0,4.6,4.6,0,0,1-2.5-2.5,6.28,6.28,0,0,1-.3-1.9v-6.7h2.6V176a4.1,4.1,0,0,0,.1,1.1,2,2,0,0,0,.4.8,1.79,1.79,0,0,0,.7.5A3,3,0,0,0,183.3,178.6Z"/><path d="M212.9,175a6.2,6.2,0,0,1-.4,2.3,5.67,5.67,0,0,1-1.2,1.8,6.15,6.15,0,0,1-1.9,1.2,6.72,6.72,0,0,1-2.4.4h-4.4V169.4H207a6.72,6.72,0,0,1,2.4.4,7.61,7.61,0,0,1,1.9,1.2,5.67,5.67,0,0,1,1.2,1.8A5.09,5.09,0,0,1,212.9,175Zm-2.7,0a7.72,7.72,0,0,0-.2-1.5,2.38,2.38,0,0,0-.6-1.1,2.29,2.29,0,0,0-1-.7,3.08,3.08,0,0,0-1.3-.3h-1.8v7.3h1.8a2.77,2.77,0,0,0,1.3-.3,3.59,3.59,0,0,0,1-.7,2.38,2.38,0,0,0,.6-1.1,4.68,4.68,0,0,0,.2-1.6Z"/><path d="M229.5,180.6h-2.6V169.3h2.6Z"/><path d="M255.2,175a5.87,5.87,0,0,1-.4,2.3,5,5,0,0,1-3,3,6.63,6.63,0,0,1-4.8,0,7.61,7.61,0,0,1-1.9-1.2,5.67,5.67,0,0,1-1.2-1.8,6.1,6.1,0,0,1,0-4.6,5.52,5.52,0,0,1,3-3,7.4,7.4,0,0,1,4.8,0,7.61,7.61,0,0,1,1.9,1.2,5.67,5.67,0,0,1,1.2,1.8A5.87,5.87,0,0,1,255.2,175Zm-2.7,0a7.72,7.72,0,0,0-.2-1.5,2.38,2.38,0,0,0-.6-1.1,2.29,2.29,0,0,0-1-.7,4.16,4.16,0,0,0-2.7,0,3.59,3.59,0,0,0-1,.7,2.38,2.38,0,0,0-.6,1.1,5.11,5.11,0,0,0,0,3,2.38,2.38,0,0,0,.6,1.1,2.29,2.29,0,0,0,1,.7,4.16,4.16,0,0,0,2.7,0,3.59,3.59,0,0,0,1-.7,2.38,2.38,0,0,0,.6-1.1A7.72,7.72,0,0,0,252.5,175Z"/><path d="M175.8,78.8h-2a.73.73,0,0,1-.6-.2,1.38,1.38,0,0,1-.3-.4l-.7-2h-4.3l-.7,2a1.38,1.38,0,0,1-.3.4,1.69,1.69,0,0,1-.5.2h-2.1l4.4-11.3h2.7Zm-4.2-4.3-1-3.1a1.45,1.45,0,0,1-.2-.7,3.18,3.18,0,0,0-.3-.9l-.3.9a2.54,2.54,0,0,0-.2.7l-1,3.1Z"/><path d="M198.3,78.8h-2.4a1.23,1.23,0,0,1-1-.5L193,75l-.3-.3a.75.75,0,0,0-.5-.1h-.7v4.2h-2.6V67.5h3.7a7.61,7.61,0,0,1,2.1.3,3.69,3.69,0,0,1,1.4.7,2.84,2.84,0,0,1,.8,1.1,3.08,3.08,0,0,1,.3,1.3c0,.3-.1.7-.1,1a3.55,3.55,0,0,1-.4.9,5,5,0,0,1-.7.8,3.13,3.13,0,0,1-1,.5c.2.1.3.2.5.3a1,1,0,0,1,.4.5Zm-5.6-6a2.77,2.77,0,0,0,.9-.1,2.09,2.09,0,0,0,.6-.4,1.27,1.27,0,0,0,.4-.6,1.7,1.7,0,0,0,.1-.7,1.85,1.85,0,0,0-.5-1.2,2,2,0,0,0-1.5-.4h-1v3.3Z"/><path d="M219.6,69.6h-3.2v9.2h-2.6V69.6h-3.2V67.5h9Z"/></svg>