<svg xmlns="http://www.w3.org/2000/svg" viewBox="0 0 428.1 169.4"><title>logo-3</title><path d="M252.3,49.2a6.25,6.25,0,0,1-5.7,6.7h-.9c-1.2,0-4.5,0-6.5-2-1-1.2-2-2.4-2.9-3.7-1.9,5.6-12.2,8.7-16.6,2.1-4.6-6.9,2.3-12,6.1-14.2l1.4-.9L225.1,34c-4.9-6.7-1.8-14,5.3-14.5,3.5-.2,6.3,1.4,7.4,4.5.6,1.9,1.7,6.2-3.9,10.2l6,9c1.9-3.7,4.1-4.9,5.9-5.3a4.28,4.28,0,0,1,3.8.6,3.53,3.53,0,0,1,.2,5.1,3.58,3.58,0,0,1-4.9.4,2.85,2.85,0,0,1-1.2-2.4c0-1.2-2.4-.2-3.5,2.2.7,1.2,3.2,4.8,3.6,5.3a5,5,0,0,0,4.2,2.6c1.7,0,3.2-.6,3.4-2.4h.9ZM227.6,37.7l-1.4.9c-2.2,1.7-3.1,6,.4,10.5,2.2,2.9,7.1,4.6,9.2.4Zm4.7-16.5c-2.3.3-4.6,3.7-2,7.6l3.2,4.8c5.1-3.4,4.1-7.7,3.4-9.3C235.9,22.3,234.2,20.9,232.3,21.2Z"/><path d="M230.3,88.8l.4,6c-1.7,1.1-4.7,1.8-8.2,1.8-7.1,0-12.5-4.9-12.5-12s5.4-12,12.5-12c3.9,0,6.8.6,8.2,1.8l-.4,6h-.4c-1.4-5.7-4.3-7.3-7.4-7.3-3.7,0-5.4,2.5-5.4,11.6s1.8,11.6,5.4,11.6c3.1,0,6.4-2.2,7.4-7.4Z"/><path d="M250.5,96.6c-7.3,0-11.8-5.2-11.8-11.9s4.5-12.2,11.8-12.2,11.8,5.6,11.8,12.2S257.8,96.6,250.5,96.6Zm0-23.6c-4,0-5,2.6-5,11.8s1,11.4,5,11.4,4.9-2.3,4.9-11.4S254.4,73,250.5,73Z"/><path d="M198.7,104.7V107H156.3v-2.3c6.4,0,10.9-4.4,10.9-15.8V6.5L128.7,108.3h-2.3L84,16.3V68.9c0,8.8,1.2,35.9,20.2,35.9v2.3H59.7v-2.3c20.7,0,22-27.2,22-35.9V12.6c-5.6-10-13.2-10-17-10.3V0H99l38,81.6L167.3,0h30.4V2.3C191.2,2.3,186,6,186,15.7V89C186,100.3,192.2,104.7,198.7,104.7Z"/><path d="M370.4,0V2.3c-8.5,0-13.8,0-28.4,36.3L315.2,107h-2.4C284.8,39.8,275,14,275,14,270.2,2.4,265,2.3,260.5,2.3V0h44.7V2.3c-12.6,0-8,15-7.9,15.5l25,65.2,17.5-45c2.3-7,13.7-35.7-9.7-35.7V0Z"/><path d="M6.1,147.7v6.6H15V159H6.1v10.2H0V143H16.8v4.7Z"/><path d="M59.9,164.3a5.7,5.7,0,0,0,2.2-.4,4.81,4.81,0,0,0,1.6-1.2,4.6,4.6,0,0,0,1-1.8,10.05,10.05,0,0,0,.4-2.5V143h6.1v15.4a11.08,11.08,0,0,1-.8,4.4,11.52,11.52,0,0,1-2.2,3.5,10.14,10.14,0,0,1-3.5,2.3,13.8,13.8,0,0,1-9.4,0,9.89,9.89,0,0,1-5.8-5.7,13.17,13.17,0,0,1-.8-4.4V143h6.1v15.4a7.27,7.27,0,0,0,.4,2.5,5,5,0,0,0,1,1.9,4.81,4.81,0,0,0,1.6,1.2A6.65,6.65,0,0,0,59.9,164.3Z"/><path d="M125.8,169.1h-5.5a2.42,2.42,0,0,1-2.2-1.1l-4.3-7.6a2.34,2.34,0,0,0-.7-.7,1.8,1.8,0,0,0-1-.2h-1.5v9.7h-6.1V143H113a19.73,19.73,0,0,1,4.8.6,10.11,10.11,0,0,1,3.3,1.6,6.09,6.09,0,0,1,1.8,2.4,8,8,0,0,1,.2,5.5,8.11,8.11,0,0,1-1,2.1,8.69,8.69,0,0,1-1.6,1.7,8.36,8.36,0,0,1-2.3,1.2,4.44,4.44,0,0,1,1.1.8,3.13,3.13,0,0,1,.9,1.1ZM113,155.3a7.61,7.61,0,0,0,2.1-.3,4.19,4.19,0,0,0,1.4-.9,3.53,3.53,0,0,0,.8-1.3,4.53,4.53,0,0,0,.3-1.6,3.48,3.48,0,0,0-1.1-2.7,5.34,5.34,0,0,0-3.5-1h-2.4v7.7Z"/><path d="M179.5,143v26.1h-3.1a5,5,0,0,1-1.2-.2,2.36,2.36,0,0,1-.9-.8L162,152.5c0,.5.1.9.1,1.4v15.2h-5.3V143h3.9c.2,0,.3.1.5.1s.3.2.4.3l.5.5,12.4,15.7a7.57,7.57,0,0,1-.1-1.5V143Z"/><path d="M219.3,169.1h-6.1V143h6.1Z"/><path d="M271.8,147.8h-7.3v21.3h-6.1V147.8H251V143h20.8Z"/><path d="M314.4,164.3a5.7,5.7,0,0,0,2.2-.4,4.81,4.81,0,0,0,1.6-1.2,4.6,4.6,0,0,0,1-1.8,10.05,10.05,0,0,0,.4-2.5V143h6v15.4a11.08,11.08,0,0,1-.8,4.4,9.62,9.62,0,0,1-5.8,5.7,13.8,13.8,0,0,1-9.4,0,10.14,10.14,0,0,1-3.5-2.3,9.88,9.88,0,0,1-2.2-3.5,13.17,13.17,0,0,1-.8-4.4V143h6.1v15.4a7.27,7.27,0,0,0,.4,2.5,5,5,0,0,0,1,1.9,4.81,4.81,0,0,0,1.6,1.2A8.33,8.33,0,0,0,314.4,164.3Z"/><path d="M380.4,169.1h-5.5a2.42,2.42,0,0,1-2.2-1.1l-4.3-7.6a1.74,1.74,0,0,0-1.8-.9h-1.5v9.7H359V143h8.5a19.73,19.73,0,0,1,4.8.6,10.11,10.11,0,0,1,3.3,1.6,6.09,6.09,0,0,1,1.8,2.4,8,8,0,0,1,.2,5.5,8.11,8.11,0,0,1-1,2.1,8.69,8.69,0,0,1-1.6,1.7,8.36,8.36,0,0,1-2.3,1.2,4.44,4.44,0,0,1,1.1.8,3.13,3.13,0,0,1,.9,1.1Zm-12.9-13.8a7.61,7.61,0,0,0,2.1-.3,4.19,4.19,0,0,0,1.4-.9,3.53,3.53,0,0,0,.8-1.3,4.53,4.53,0,0,0,.3-1.6,3.48,3.48,0,0,0-1.1-2.7,5.34,5.34,0,0,0-3.5-1h-2.4v7.7Z"/><path d="M417.3,147.7v6.1h8.2v4.5h-8.2v6.2H428v4.7H411.2V143H428v4.7Z"/></svg>