<svg xmlns="http://www.w3.org/2000/svg" viewBox="0 0 296.1 223.7"><title>logo-8</title><path d="M0,0V223.7H296.1V0ZM113.3,3.4h69.5V110.6H113.3ZM3.4,3.4H110.3v107H3.4Zm0,109.9,109.9-.3h69.5v52.4H3.4Zm105.5,107H3.4V168.4H108.9Zm183.8,0H111.9V168.4H292.8v51.9Zm0-54.8h-107V113.4h107Zm0-55.1h-107V3.4h107Z"/><path d="M232.3,147.8l.5,7.3c-2,1.3-5.7,2.2-10,2.2-8.7,0-15.3-6-15.3-14.7s6.6-14.7,15.3-14.7c4.7,0,8.3.8,10,2.2l-.5,7.3h-.5c-1.8-7-5.3-9-9-9-4.5,0-6.6,3-6.6,14.2s2.2,14.2,6.6,14.2c3.8,0,7.8-2.7,9-9Z"/><path d="M256.9,157.3c-9,0-14.5-6.4-14.5-14.5s5.5-14.9,14.5-14.9,14.5,6.9,14.5,14.9S265.9,157.3,256.9,157.3Zm0-28.9c-4.9,0-6.1,3.2-6.1,14.4s1.2,14,6.1,14,6-2.8,6-14-1.1-14.4-6-14.4Z"/><path d="M173.7,75.3c.1,5.9-3.7,9.6-9.4,9.6-1.7.1-6.5-.1-9.4-2.9a57.11,57.11,0,0,1-4.2-5.4c-2.6,8-17.5,12.5-23.8,3-6.6-9.9,3.4-17.2,8.7-20.4l2-1.3-3.1-4.6c-7-9.6-2.6-20,7.6-20.8,5-.3,9.1,2,10.6,6.4.9,2.7,2.5,8.9-5.6,14.7l8.7,13c2.7-5.3,5.9-7,8.5-7.7a6.32,6.32,0,0,1,5.5.9,5.13,5.13,0,0,1-6.3,8.1l-.3-.3a4.62,4.62,0,0,1-1.8-3.4c-.1-1.7-3.5-.2-5,3.2,1,1.7,4.5,6.8,5.2,7.7,2.4,3.4,5,3.7,6.1,3.7,2.5,0,4.5-.8,4.9-3.5ZM138.4,58.8l-2,1.3c-3.1,2.4-4.5,8.6.6,15,3.2,4.1,10.3,6.6,13.3.6ZM145,35c-3.3.5-6.6,5.4-2.9,10.9l4.6,6.9c7.3-5,5.9-11,4.8-13.4C150.3,36.6,147.8,34.6,145,35Z"/><path d="M232.6,28.9v1.4c-4,0-7.5,1-7.5,7.7V83c0,6.2,2.6,9.1,6.5,9.1v1.4h-24V92c3.9,0,6.1-2.8,6.1-9.1V38c0-5.7-2.2-7.7-6.1-7.7V28.9Zm40.9,64.5H261.4c-9.7,0-11.8-2.8-21.5-16.6-5.2-7.6-9.7-13.4-9.7-13.4l12.1-14.7c2.7-3,15.9-18.2.8-18.5V28.8h27.8v1.4c-6.4,0-12.2,1.2-32,26.6L261,86.5c4.3,5.7,10.6,5.5,12.5,5.5Z"/><path d="M79,28.9v17H77.6C75.2,29.7,54.7,30.3,51.1,30.3h-4V60h4.5c1.3,0,13.3.3,14.5-9.3h1.4V70.9H66.1c-1.2-9.6-13.2-9.3-14.5-9.3H47.1v20c0,9.7,3.4,10.4,7.4,10.4v1.4H30.6V92c3.9,0,5.1-4,5.1-10.3V40c0-5.7-1.1-9.8-5.1-9.8V28.8H79Z"/><path d="M32.2,130.8v5.6h-.5c-.8-5.4-7.6-5.1-8.8-5.1H21.6v9.9h1.5c.4,0,4.4.1,4.8-3.1h.4v6.7h-.4c-.4-3.2-4.4-3.1-4.8-3.1H21.6v6.6c0,3.2,1.1,3.5,2.4,3.5v.4H16.1v-.4c1.3,0,1.7-1.3,1.7-3.4V134.6c0-1.9-.4-3.2-1.7-3.2V131Z"/><path d="M56.3,152.1H53.8c-4.7,0-4,0-6-6.6a4.18,4.18,0,0,0-4.2-3.1H42.2v6.3c0,2.1.9,3,2.1,3v.4H36.5v-.4c1.3,0,2-.9,2-3.1V133.8c0-1.9-.7-2.5-2-2.5v-.4h6.6c6,0,9.8.7,9.8,5.8,0,3.9-2.4,5.2-5.8,5.5,2-.1,4.2.7,5.8,6.8a3.73,3.73,0,0,0,3.4,2.8ZM43.1,131.2h-.9v10.7h.9c3.2,0,5.7,0,5.7-5.3s-2.6-5.4-5.7-5.4Z"/><path d="M80.3,152.1H72.5v-.4c2,0,1.1-2.5.7-3.3l-1-2.4H64.7c-.4,1.2-2,5.9,2.5,5.8v.4H60.1v-.4c1,0,1.7,0,4.5-7.1l5.2-13.8h.4c5.6,13.4,7.6,18.5,7.6,18.5,1,2.4,1.7,2.3,2.5,2.3ZM72,145.4,68.2,136l-3.5,9.4Z"/><path d="M108,130.8v.4c-4.5,0-4.4,5.8-4.4,7.1V152h-1.3l-13-16.7v9c0,1.4,0,7.2,4.1,7.2v.4h-9v-.4c4.4,0,4.4-5.9,4.4-7.2V135l-1.2-1.6c-1.9-2.4-2.8-2.1-3.6-2.2v-.4h6.5l12.7,16v-8.4c0-1.4,0-7.2-4.1-7.1v-.4Z"/><path d="M130.6,145.7l.4,4.7c-2.2,1.5-4.3,1.9-7.6,1.9-6.4,0-10.5-4.5-10.5-10.9s4.1-10.9,10.5-10.9c3.1,0,5.7.3,7.6,1.8l-.4,4.7h-.4c-1.3-4.5-3.8-6.1-6.7-6.1-3.3,0-5.9,1.8-5.9,10.5s2.7,10.5,5.9,10.5a6.82,6.82,0,0,0,6.7-6.1h.4Z"/><path d="M145.2,130.8v.4a2.27,2.27,0,0,0-2.4,2.6v14.9c0,2.1,1.1,3,2.4,3v.4h-8.5v-.4c1.3,0,2.4-.9,2.4-3V133.8c0-1.9-1-2.6-2.4-2.6v-.4Z"/><path d="M158.5,152.3c-5.4,0-7.8-1.8-7.8-1.8v-5.8h.5c.5,2.8,2,7.1,7.3,7.1,3.9,0,4.7-4.8,1.1-7.4l-4.8-3.1c-3.6-2.3-5.8-5.2-3.4-8.6,0,0,1.5-2.3,6-2.3a16.68,16.68,0,0,1,7.3,1.4v5.1h-.5c-.4-2.3-1.9-6.1-6.9-6.1-3.3,0-5.1,4.1-.9,6.9l4.9,3.2c4,2.7,5.2,6,3.3,8.9C164.6,149.9,163.3,152.3,158.5,152.3Z"/><path d="M19,182.6v.4c-1.3,0-2.5.3-2.5,2.6v14.9c0,2.1.9,3,2.1,3v.4H10.7v-.4c1.3,0,2-.9,2-3V185.6c0-1.9-.7-2.6-2-2.6v-.4Zm13.5,21.3h-4c-3.2,0-3.9-.9-7.1-5.5-1.7-2.5-3.2-4.4-3.2-4.4l4-4.9c.9-1,5.2-6,.3-6.1v-.4h9.2v.4c-2.1,0-4,.4-10.6,8.8,5.3,7.1,7.3,9.8,7.3,9.8a4.94,4.94,0,0,0,4.1,1.8Z"/><path d="M45.1,204.2c-6.7,0-10.1-4.8-10.1-10.8s3.5-11.1,10.1-11.1,10.2,5.1,10.2,11.1S51.7,204.2,45.1,204.2Zm0-21.4c-3.6,0-5.8,2.3-5.8,10.6s2.2,10.3,5.8,10.3,5.8-2,5.8-10.3S48.6,182.8,45.1,182.8Z"/><path d="M68.7,204.2c-5.4,0-7.8-1.8-7.8-1.8v-5.8h.5c.5,2.8,2,7.1,7.3,7.1,3.9,0,4.7-4.8,1.1-7.4L65,193.2c-3.6-2.3-5.8-5.2-3.4-8.6,0,0,1.5-2.3,6-2.3a16.68,16.68,0,0,1,7.3,1.4v5.1h-.4c-.4-2.3-1.9-6.1-6.9-6.1-3.3,0-5.1,4.1-.9,6.9l4.8,3.2c4,2.7,5.2,6,3.3,8.9C74.9,201.7,73.5,204.2,68.7,204.2Z"/><path d="M97.4,197.5v6.4H81.2v-.4c1.3,0,1.7-1.3,1.7-3.4V186.3c0-1.9-.4-3.2-1.7-3.2v-.4H97v5.6h-.5c-.5-5.1-7.2-5.1-8.5-5.1H86.6v9.9h1.5c.4,0,4.3,0,4.6-3.1h.4v6.7h-.4c-.2-3.1-4.2-3.1-4.6-3.1H86.6v10.1h1.2c1.3,0,8,.1,9-6Z"/><path d="M150.7,201.8a5.47,5.47,0,0,1,2.5-3.6,6,6,0,0,0-.6-1.9,16,16,0,0,0-1.2-2.7,1.61,1.61,0,0,0-.3-.9,5.75,5.75,0,0,1-.5-2.6c.1-1.3.5-2.9,1.6-3.6a2.55,2.55,0,0,1,2.5-.7,1.55,1.55,0,0,1,1,1.2,3,3,0,0,1-1.5,3.3c-.3.1-.6.1-.9.2,0,0,.3.7.7,1.5a18.67,18.67,0,0,0,1.5,3.2c.3.5.5,1,.8,1.4,1.1-.1,2.3-.8,3.5-.8a21.84,21.84,0,0,0,6.2-1.1,9.38,9.38,0,0,0,1.5-.6l3.7-2.1.1.8a36,36,0,0,1-6.3,2.9,8.47,8.47,0,0,1-1.7.4,10.07,10.07,0,0,0-2.5.3,7.73,7.73,0,0,0-3.4.8.76.76,0,0,1-.5.2c-.2.2.1.4.1.7a23.25,23.25,0,0,1,.5,2.8,3.78,3.78,0,0,1-.8,2.3,4.56,4.56,0,0,1-3.2,1.8C151.5,205.5,150.4,203.3,150.7,201.8Zm3.4,1.8a5.7,5.7,0,0,0,.1-1.3,7.69,7.69,0,0,0-.3-3l-1,.6a3.52,3.52,0,0,0-1,1.9,2.44,2.44,0,0,0,.1,2.2,1.14,1.14,0,0,0,1.5.5,1.46,1.46,0,0,0,.6-.9Zm.7-14.6c.5-.6.9-2.2-.3-2.2a2.2,2.2,0,0,0-.8.1c-1.4.9-.8,3-.8,2.9S154.5,189.5,154.8,189Z"/><path d="M180.1,201.7c-.4-3.7-.6-7.4-1.2-8.5-.5-.7-1.8.6-2.7,3.9-1,4.6-1.5,5-2.3,5.5-.6,0-1.8.9-1.8.7-.5.3-.8-.8-.9-2.1-.1-1.6-.3-2.7-.3-2.8a67.72,67.72,0,0,1-.2-7.8c0-2.3.2-3.9.3-5.2a10.47,10.47,0,0,1,.5-3,33.38,33.38,0,0,1,1-4.3c.4-.6,1.3-2.1,2.6-2.1l.7-.1c.9.1,2.4.2,2.8,1.3a12,12,0,0,1-1.4,6.2,14.09,14.09,0,0,1-3.8,4.9l-.1.1c-.1.6,0,2.7-.2,3.2a63.46,63.46,0,0,0,.5,8.7c.9-2.4,1-4,3.2-7.8.9-1.9,2.1-1.6,2.8-1.3,1.7.3,2.8,1.1,2.8,3.8a45.68,45.68,0,0,0,.5,4.6c.4,2.5,1,4.9,1.8,4.9h.1c1.5-1.6,7-7.4,8-8,2-1.3,4-1.7,5.2-3.1.2-.1.5-.2.4.6-1,1.2-6.2,3.7-7.4,4.9l-6,6.5a3.77,3.77,0,0,1-2.7.8C180.9,206.4,180.9,204,180.1,201.7Zm-6.6-14.3a11.75,11.75,0,0,0,4.1-7.5c.2-1.1.8-2.4-.6-2.7a1.6,1.6,0,0,0-1.4.8,21.61,21.61,0,0,0-1.6,4.9,23.38,23.38,0,0,0-.7,4.5v.1C173.4,187.5,173.4,187.4,173.5,187.4Z"/><path d="M200.8,201.9a5.45,5.45,0,0,1-2.9-3.7,12.09,12.09,0,0,1-.5-1.8c-.3-1.3-1-2.2-.9-2.7.6-3.5,2.6-4.1,2.7-4.1,2-1.3,6,0,6.2.3a3.69,3.69,0,0,1,.7,1.4,14,14,0,0,1,.2,1.7c0,.2.1.3.2.3h.1l.4-.2a17.23,17.23,0,0,0,2.1-.7l1.1-.4a3.38,3.38,0,0,0,1.2-.6c.4-.1.8-.3,1.2-.4a7.37,7.37,0,0,1,1.4-.4,2.77,2.77,0,0,1,.9-.1h4.6a1.27,1.27,0,0,1,.6.1l.2.2c.1.1.1.1.2.1s.1.2.1.2-.2.2-.3.2a29.22,29.22,0,0,0-6.6.3c-2.2.8-7.3,2.5-7.3,3.4,0,.2-.1.5,0,.7a6.64,6.64,0,0,1-.6,2,20,20,0,0,1-1,2.1c-.3.6-1.3,2.4-2.9,2.3C201.4,202,201.1,202,200.8,201.9Zm3.1-2.9,1.1-3.2a1.27,1.27,0,0,0,.1-.6c0-.2,0-.2-.2-.2h-.7a3.33,3.33,0,0,1-1.7-.2,6.07,6.07,0,0,1-1-.7c-.2-.1-.3-.2-.5-.3s-.3-.2-.4-.4-.4-.1-.6-.1a.52.52,0,0,0-.2.4,1.88,1.88,0,0,1-.2.8,8.49,8.49,0,0,0,.7,4.7c.3.6.8,1.7,1.6,1.7C203.1,200.8,203.4,200.2,203.9,199Zm1.3-5.9a1.69,1.69,0,0,0-.3-1c0-.1,0-.2-.2-.2a1.86,1.86,0,0,0-2.2-.6l-.6.3-.3.3c-.1.1,0,.2.1.2s.1.1.2.2c1.6,1.6,3.4,1.4,3.3,1.1Z"/><path d="M219.1,200.4a6.13,6.13,0,0,1-.4-.6,6.47,6.47,0,0,1-.4-1.3c-.6-1.6.1-5.6.3-6.3a7.62,7.62,0,0,1,3.7-4.2,1.57,1.57,0,0,1,1.7.5c1.4,1.4.1,5.9-3.1,7.3-.1.1-.2.3-.1.4a4.11,4.11,0,0,0,4.3,3.2,8.33,8.33,0,0,0,1.5-.4c1.5-.6,2.9-2.6,4.2-3.8a9.43,9.43,0,0,0,1-1c.5-.6,1.2-1,1.7-1.5,3.7-2.1,6.6-1.3,7.6-1.8l.3.7c-2.6,0-6.6.8-8.4,2.4a10.08,10.08,0,0,0-1.9,1.7c-.3.4-.2.3-1.9,2.4-.4.4-.8.9-1.1,1.2a10.1,10.1,0,0,1-1.6,1.3C224.3,202.8,220.6,202.5,219.1,200.4Zm3.7-7.7a8.87,8.87,0,0,0,.8-3.2.65.65,0,0,0-.6-.6.37.37,0,0,0-.3.1,4.5,4.5,0,0,0-1.4,1.9,19.73,19.73,0,0,0-.7,2.6,12.1,12.1,0,0,0-.1,1.9,8.3,8.3,0,0,0,2.3-2.7Z"/><path d="M238.9,201.8a5.47,5.47,0,0,1,2.5-3.6,10.55,10.55,0,0,0-.5-1.9,16,16,0,0,0-1.2-2.7,1.61,1.61,0,0,0-.3-.9,4.62,4.62,0,0,1-.4-2.6c.1-1.3.5-2.9,1.5-3.6a2.55,2.55,0,0,1,2.5-.7,1.55,1.55,0,0,1,1,1.2,3,3,0,0,1-1.5,3.3c-.4.1-1,.2-1,.2s.3.7.7,1.5a30.9,30.9,0,0,0,1.4,3.2c.3.6.6,1,.8,1.4,1.1-.1,2.3-.8,3.5-.8a20.57,20.57,0,0,0,6.1-1.1,9.38,9.38,0,0,0,1.5-.6l3.7-2.1.1.8a36,36,0,0,1-6.3,2.9,8.47,8.47,0,0,1-1.7.4,10.07,10.07,0,0,0-2.5.3,7.73,7.73,0,0,0-3.4.8.76.76,0,0,1-.4.2c-.2.2,0,.4.1.7a12.61,12.61,0,0,1,.4,2.8,4,4,0,0,1-.8,2.3,4.56,4.56,0,0,1-3.2,1.8C239.7,205.5,238.5,203.3,238.9,201.8Zm3.4,1.8a5.7,5.7,0,0,0,.1-1.3,7.69,7.69,0,0,0-.3-3l-1,.6a3.52,3.52,0,0,0-1,1.9,2.44,2.44,0,0,0,.1,2.2,1.13,1.13,0,0,0,2.1-.4ZM243,189c.6-.6.9-2.2-.3-2.2a2.2,2.2,0,0,0-.8.1c-1.4.9-.8,3-.8,2.9S242.6,189.5,243,189Z"/></svg>