<svg xmlns="http://www.w3.org/2000/svg" viewBox="0 0 239.7 251.2"><title>logo-7</title><path d="M30.6,130.5c-.3-.3-.4-.7-.6-.9a6.64,6.64,0,0,1-.6-2c-.9-2.3.2-8.3.5-9.2a11.52,11.52,0,0,1,5.4-6.1,2.35,2.35,0,0,1,2.5.7c2,2.1.1,8.6-4.6,10.7a.48.48,0,0,0-.2.6c1,4.9,6,4.7,6.4,4.7a9.77,9.77,0,0,0,2.3-.6c2.2-.9,4.3-3.8,6.2-5.5a10,10,0,0,1,1.6-1.4c.8-.8,1.7-1.5,2.5-2.2,5.4-3.1,9.7-1.9,11.2-2.7l.5,1c-3.8,0-9.8,1.2-12.4,3.6a21.72,21.72,0,0,0-2.9,2.4c-.4.6-.3.4-2.8,3.6-.6.6-1.1,1.3-1.6,1.8a15.91,15.91,0,0,1-2.4,2C38.2,134,32.8,133.6,30.6,130.5Zm5.5-11.4a11.16,11.16,0,0,0,1.1-4.7.79.79,0,0,0-.8-.8.6.6,0,0,0-.4.1,5.81,5.81,0,0,0-2.1,2.8,16.37,16.37,0,0,0-1,3.8,24.58,24.58,0,0,0-.2,2.8,11.91,11.91,0,0,0,3.4-4Z"/><path d="M61.7,132.7a8.65,8.65,0,0,1-.6-2.3c-.1-.7-.2-1.4-.3-2.3-.2-1.5-.2-3.1-.4-4.7-.1-.6-.1-3.6-.1-3.9,0-1.1.2-2.3.2-3.5.2-2,.5-4.2.6-6.2.4-1.5.6-3.4,1.1-5a19.48,19.48,0,0,1,.6-2.3l2-6.2a4.42,4.42,0,0,1,3.6-2.7c.4.3.7.6,1.1.9a7.27,7.27,0,0,1,1.4,3.1,22.24,22.24,0,0,1,.7,5.7,10.78,10.78,0,0,1-.7,4.7,21.1,21.1,0,0,1-2.1,4.6l-.8,1.5c-.4.8-1.1,1.5-1.4,2.3a1.78,1.78,0,0,0-.4,1c-.1.7-.1,1.3-.2,2v.5c-.1,1-.2,2.1-.3,3a5.66,5.66,0,0,1-.3,1.8c-.1,1.6-.2,3.3-.2,4.8v3.4c0,.2.1.3.1.5.1.5.2.6.8.7a1.83,1.83,0,0,0,1.7-.6c.3-.3.7-.4.9-.7a23.13,23.13,0,0,1,2-2.4c2.1-2.7,4.6-5.3,8.4-6.3,1.1-.3,8.6-3.3,9.2-3.5.3-.3.4-.3.5,0,.2.1.2.4.2.6-.2.3-2,1.1-2.3,1.4-5.9,2.2-9.7,2.4-12.5,5.8-.7,1.1-1.4,2.2-2.2,3.3a22.47,22.47,0,0,1-1.2,2.1c-.6.7-1.1,1.5-1.7,2.1C67,138,62.7,134.7,61.7,132.7Zm5.2-18.9a24.62,24.62,0,0,0,2.3-4.2,9.12,9.12,0,0,0,1.2-3.5,13.13,13.13,0,0,0-.1-2.8c0-1.4-.2-2.6-.2-3.9-.1-.3-.2-.7-.3-1a5.68,5.68,0,0,0-.7-2.2c0-.1-.3-.3-.5-.5a.76.76,0,0,0-.2.5,10,10,0,0,0-1,2.9,56.1,56.1,0,0,0-.6,5.9c-.3,2.1-.4,4.2-.6,6.3-.1,1-.1,2-.1,3.3.1,0,.2,0,.2.1A6.78,6.78,0,0,0,66.9,113.8Z"/><path d="M93.4,132.7c-1-.4-3.9-2.5-4.3-5.4a27.59,27.59,0,0,1-.8-2.7c-.4-2-1.5-3.3-1.3-4,.8-5.1,3.8-6,4-6.1,3-1.9,8.8,0,9.1.5a5.38,5.38,0,0,1,1,2c.2,2.1.2,2.3.2,2.4s.1.5.4.5h.1l.6-.3a23.26,23.26,0,0,0,3.1-1.1l1.5-.6a8.86,8.86,0,0,0,1.7-.8c.6-.2,1.1-.4,1.7-.6s1.5-.4,2-.6.9-.1,1.3-.2h6.8a2.92,2.92,0,0,1,.9.2c0,.1.2.2.2.3s.2.2.3.2a.37.37,0,0,1,.1.3c-.1.2-.2.2-.4.2a45.05,45.05,0,0,0-9.7.4c-3.2,1.1-10.7,3.7-10.7,5a3.75,3.75,0,0,0-.1,1.1,7.54,7.54,0,0,1-.9,2.9,17.72,17.72,0,0,1-1.5,3.1c-.4.9-1.9,3.5-4.3,3.4A4.14,4.14,0,0,1,93.4,132.7Zm4.6-4.3,1.6-4.7a2.2,2.2,0,0,0,.1-.8c.1-.3,0-.3-.2-.3h-1a5.39,5.39,0,0,1-2.5-.3c-.4-.3-1-.6-1.5-1-.2-.2-.5-.3-.7-.5l-.6-.6c-.3-.3-.6-.2-.9-.1s-.2.3-.2.6a5.27,5.27,0,0,1-.3,1.2,13.55,13.55,0,0,0,1,6.9c.4.9,1.1,2.4,2.4,2.4,1.5-.2,2-1.1,2.8-2.8Zm1.8-8.7a3,3,0,0,0-.5-1.6c-.1-.1-.1-.2-.2-.3a3,3,0,0,0-3.3-.9,3.55,3.55,0,0,0-.9.4c-.2.1-.2.3-.4.5,0,.2,0,.2.2.3s.2.2.3.3c2.4,2.3,5,2,4.9,1.6,0,0-.1,0-.1-.3Z"/><path d="M151.7,115.7c-.3.3-.2.6-.3.6-5-1-12.6,4.3-14.4,5.6a18.78,18.78,0,0,1-2.5,2.4c-.6.6-3.1,3.3-4.5,4.6a12.67,12.67,0,0,1-1.1,1.3,9.2,9.2,0,0,1-2.5,1.9c-1.3.6-2,1.2-3.5,1-2.4-.4-2.4-2.9-2.9-5.6-.1-1.2-.2-2.4-.2-3.6.2-3.2,0-6.4.6-9.7.3-1.2-.2-1.5,1.8-1.7a11.7,11.7,0,0,0,2-.5c1.1-.1,1.3.7,1.1,2.2-.2,1.1-.4,2.4-.6,3.8-.3,2.2-.7,4.3-1,6.6a19.93,19.93,0,0,0-.6,4.9,1.24,1.24,0,0,0,1.2,1.3,3.84,3.84,0,0,0,2.5-.9,45.2,45.2,0,0,0,5.6-5.1c1-1,5.8-5.8,7.3-6.9A23.75,23.75,0,0,1,151,115C151.4,115.2,151.3,115.4,151.7,115.7Zm-29.1-11.6c.5-.7.7-1.6,1.4-2,.6-.2,2.4.5,2.4,1.4a2,2,0,0,1-.3,2.3,2.46,2.46,0,0,1-2.6.3C122.7,105.4,122.1,104.9,122.6,104.1Z"/><path d="M148,132.5a8.21,8.21,0,0,1,3.8-5.3,9,9,0,0,0-.8-2.8,28.75,28.75,0,0,0-1.8-4,7.37,7.37,0,0,0-.4-1.4,6.27,6.27,0,0,1-.6-3.8c.2-2,.7-4.2,2.3-5.2a3.84,3.84,0,0,1,3.7-1.1,2.34,2.34,0,0,1,1.5,1.7c.4,1.8-.3,4.2-2.3,4.9l-1.4.3s.5,1,1,2.2a39.58,39.58,0,0,0,2.1,4.7l1.2,2.1c1.6-.1,3.3-1.1,5.2-1.2a30.41,30.41,0,0,0,9-1.6c.6-.3,1.6-.5,2.2-.8l5.4-3,.2,1.2c-2.2,1.2-6.7,3.6-9.3,4.2a18.29,18.29,0,0,1-2.5.6c-1.3.1-2.5.2-3.8.4a12.16,12.16,0,0,0-5,1.1,4.88,4.88,0,0,1-.7.3c-.3.3.1.6.2,1a14,14,0,0,1,.6,4.1,7,7,0,0,1-1.2,3.4,6.7,6.7,0,0,1-4.6,2.7C149.3,138,147.6,134.7,148,132.5Zm5,2.7a13.55,13.55,0,0,0,.2-2c0-1.9,0-3.8-.4-4.5l-1.5.8a5.42,5.42,0,0,0-1.5,2.9,3.33,3.33,0,0,0,.2,3.2C150.8,136.8,152.6,136.9,153,135.2Zm1.1-21.5c.8-.8,1.4-3.3-.4-3.3a1.39,1.39,0,0,0-1.1.2c-2.1,1.3-1.2,4.4-1.2,4.3s2.2-.5,2.7-1.2Z"/><path d="M178.5,130.5a7,7,0,0,0-.6-.9,6.64,6.64,0,0,1-.6-2c-.9-2.3.2-8.3.5-9.2a11.52,11.52,0,0,1,5.4-6.1,2.35,2.35,0,0,1,2.5.7c2,2.1.1,8.6-4.6,10.7-.2.1-.2.4-.2.6,1,4.9,6,4.7,6.4,4.7a9.77,9.77,0,0,0,2.3-.6c2.2-.9,4.3-3.8,6.2-5.5a17.91,17.91,0,0,1,1.5-1.4c.8-.8,1.7-1.5,2.5-2.2,5.4-3.1,9.7-1.9,11.2-2.7l.5,1c-3.8,0-9.8,1.2-12.4,3.6a21.72,21.72,0,0,0-2.9,2.4c-.4.6-.3.4-2.8,3.6-.6.6-1.1,1.3-1.6,1.8a15.91,15.91,0,0,1-2.4,2C186.1,134,180.6,133.6,178.5,130.5Zm5.5-11.4a11.16,11.16,0,0,0,1.1-4.7.79.79,0,0,0-.8-.8.6.6,0,0,0-.4.1,5.81,5.81,0,0,0-2.1,2.8,16.37,16.37,0,0,0-1,3.8,24.58,24.58,0,0,0-.2,2.8A11.91,11.91,0,0,0,184,119.1Z"/><path d="M63,188a3.89,3.89,0,0,1,1.5.2,3.13,3.13,0,0,1,1,.5,1.34,1.34,0,0,1,.6.7,3.55,3.55,0,0,1,.2,1,1.27,1.27,0,0,1-.1.6c-.1.2-.1.4-.3.5a1,1,0,0,1-.5.4,1.49,1.49,0,0,1-.7.3,2.39,2.39,0,0,1,1.3.7,1.75,1.75,0,0,1,.4,1.2,3.55,3.55,0,0,1-.2,1,2.41,2.41,0,0,1-.6.8,3.13,3.13,0,0,1-1,.5,5.9,5.9,0,0,1-1.4.2H59.7V188Zm-1.2,1.5v2.1h1.6c.2,0,.3-.1.5-.2l.3-.3a.9.9,0,0,0,.1-.5.75.75,0,0,0-.1-.5c0-.1-.1-.2-.2-.3s-.3-.1-.4-.2-.4-.1-.6-.1Zm1.4,5.6a1.27,1.27,0,0,0,.6-.1c.1-.1.3-.1.4-.3a.52.52,0,0,0,.2-.4c0-.1.1-.3.1-.4a.6.6,0,0,0-.1-.4c0-.1-.1-.2-.2-.3a.76.76,0,0,0-.4-.2,1.27,1.27,0,0,0-.6-.1H61.8v2.2Z"/><path d="M82.6,195.1v1.6H77.4V188h2v7.1Z"/><path d="M101.5,192.3a5.66,5.66,0,0,1-.3,1.8,3.92,3.92,0,0,1-2.3,2.3,4.75,4.75,0,0,1-3.7,0,4.35,4.35,0,0,1-2.4-2.4,5.25,5.25,0,0,1,0-3.5,3.91,3.91,0,0,1,2.4-2.3,4.75,4.75,0,0,1,3.7,0,3.92,3.92,0,0,1,2.3,2.3A5.66,5.66,0,0,1,101.5,192.3Zm-2.1,0a5,5,0,0,0-.2-1.2,4.05,4.05,0,0,0-.5-.9,2.18,2.18,0,0,0-.8-.5,2.6,2.6,0,0,0-2,0,2.18,2.18,0,0,0-.8.5,4.05,4.05,0,0,0-.5.9,4.48,4.48,0,0,0,0,2.3,4.05,4.05,0,0,0,.5.9,2.18,2.18,0,0,0,.8.5,2.6,2.6,0,0,0,2,0,2.18,2.18,0,0,0,.8-.5,2.62,2.62,0,0,0,.5-.9A2,2,0,0,0,99.4,192.3Z"/><path d="M116.4,192.2h3.1v3.7a3.69,3.69,0,0,1-1.4.7,7.77,7.77,0,0,1-1.6.2,6.45,6.45,0,0,1-2-.3,3.77,3.77,0,0,1-1.5-.9,4.51,4.51,0,0,1-1-1.4,5.55,5.55,0,0,1,0-3.6,4.19,4.19,0,0,1,.9-1.4,3.77,3.77,0,0,1,1.5-.9,6.28,6.28,0,0,1,1.9-.3,3.4,3.4,0,0,1,1,.1c.3.1.6.1.9.2a1.61,1.61,0,0,1,.7.4,2.65,2.65,0,0,1,.6.5l-.6.9a1.38,1.38,0,0,1-.4.3.9.9,0,0,1-.5-.1l-.5-.2c-.1-.1-.3-.1-.4-.2a4.33,4.33,0,0,0-.5-.1h-.5a3.55,3.55,0,0,0-1,.2,1.56,1.56,0,0,0-.8.6,4.05,4.05,0,0,0-.5.9,4.25,4.25,0,0,0-.2,1.1,5,5,0,0,0,.2,1.2,4.05,4.05,0,0,0,.5.9,5.55,5.55,0,0,0,.8.6,3.59,3.59,0,0,0,1.1.2,1.27,1.27,0,0,0,.6-.1c.2-.1.4-.1.6-.2v-1.3h-.9a.35.35,0,0,1-.4-.4Z"/><path d="M134.6,192.2h3.1v3.7a3.69,3.69,0,0,1-1.4.7,7.77,7.77,0,0,1-1.6.2,6.45,6.45,0,0,1-2-.3,3.77,3.77,0,0,1-1.5-.9,4.51,4.51,0,0,1-1-1.4,5.55,5.55,0,0,1,0-3.6,4.19,4.19,0,0,1,.9-1.4,3.77,3.77,0,0,1,1.5-.9,6.17,6.17,0,0,1,3.8,0,1.61,1.61,0,0,1,.7.4,2.65,2.65,0,0,1,.6.5l-.6.9a1.38,1.38,0,0,1-.4.3.9.9,0,0,1-.5-.1l-.5-.2c-.1-.1-.3-.1-.4-.2s-.3-.1-.5-.1h-.5a3.55,3.55,0,0,0-1,.2,1.56,1.56,0,0,0-.8.6,4.05,4.05,0,0,0-.5.9,4.25,4.25,0,0,0-.2,1.1,5,5,0,0,0,.2,1.2,2.62,2.62,0,0,0,.5.9,5.55,5.55,0,0,0,.8.6,3.59,3.59,0,0,0,1.1.2,2,2,0,0,0,.7-.1c.2-.1.4-.1.6-.2v-1.3H135a.35.35,0,0,1-.4-.4Z"/><path d="M150.6,189.5v2h2.7V193h-2.7v2.1h3.6v1.5h-5.6V188h5.6v1.6Z"/><path d="M172,196.7h-1.8a.67.67,0,0,1-.7-.4l-1.4-2.5c-.1-.1-.1-.2-.2-.2s-.2-.1-.4-.1H167v3.2h-2V188h2.8a8.75,8.75,0,0,1,1.6.2,3.7,3.7,0,0,1,1.1.5,1.56,1.56,0,0,1,.6.8,3.55,3.55,0,0,1,.2,1,2.2,2.2,0,0,1-.1.8c-.1.2-.2.5-.3.7s-.3.4-.5.6a2,2,0,0,1-.8.4c.1.1.3.2.4.3a1.38,1.38,0,0,1,.3.4Zm-4.3-4.6a1.7,1.7,0,0,0,.7-.1c.2-.1.3-.2.5-.3s.2-.3.3-.4a.9.9,0,0,0,.1-.5,1.09,1.09,0,0,0-.4-.9,1.43,1.43,0,0,0-1.1-.3H167v2.6h.7Z"/><path d="M239.7,0H13.6V10.7H0V236.9H7.1v14.3H231.9v-25h7.9ZM2.9,235.5V13.6H13.6V25H7.1V235.5ZM224,25H15.7V13.6H224Zm6.4,198.3h-4.3V27.1h4.3Zm-6.4,0H15.7V27.1H224Zm0,2.9v9.3H9.3V27.1h4.3V226.2Zm6.4,22.1H9.3V236.9H226.2V226.2h4.3Zm6.5-25h-5V25h-5.7V10.7H15.7V2.1H236.9Z"/></svg>