<svg xmlns="http://www.w3.org/2000/svg" viewBox="0 0 458.6 209.6"><title>logo-6</title><path d="M49.2,49.5l1,18.7H48.5c-5.2-12.4-9.7-16.6-21.1-16.6H24V80.8h3.2c6.2,0,10.1-5.2,11.7-12.4h1.4v28H38.7c-2.3-9.5-5.9-13.2-12.5-13.2H24v30.4h3.6c12,0,20.3-8.2,23.2-18.5h1.9l-.8,20.6H0v-2.1H5.6v-62H0V49.5Z"/><path d="M85.8,115.7H59v-1.8h6.2V51.3H59V49.5H88.2c23.4,0,36.3,8.4,36.3,32C124.6,108.2,108.4,115.7,85.8,115.7Zm1.5-1.8c12.8,0,17.8-8.2,17.8-29.4V79c0-23-5.9-27.7-19.1-27.7H83.7v62.6Z"/><path d="M182.9,94.1V51.3h-6.1V49.5h13.8v1.8h-5.2V93.4c0,14.6-4.8,23.3-24.2,23.3-15.4,0-26.5-5.5-26.5-24.3v-41h-5.2V49.6h29.8v1.8h-6.1V95.7c0,10.4,2.5,18,14.1,18C176.8,113.5,182.9,107.6,182.9,94.1Z"/><path d="M220.9,93.5H202.2l-7.3,20.4H202v1.8H187.5v-1.8h4.4l24.1-65h7.8l23.8,65H252v1.8H221.1v-1.8h6.7ZM203,91.4h17.1l-8.2-24.8Z"/><path d="M278.6,82.2v31.7h6.1v1.8H254v-1.8h6.1V51.3H254V49.5h28.6c19.8,0,29.2,2.1,29.2,15.9,0,11.5-6,14.9-16.1,15.8v.3c10.2,1.3,13.7,5.3,13.7,16.3v5c0,6.1.3,8.3,2.9,8.3,1.7,0,3.1-.8,4.4-8.1l1.6.2c-1.4,10.8-4.1,13.5-12.9,13.5-11.9,0-15.4-4-15.4-17.3V92.5c0-6.7-1.3-10.2-6.4-10.2Zm0-1.8h3c7,0,10.6-3.9,10.6-14.1V63.6c0-10.6-3.9-12.3-10.5-12.3h-3.1Z"/><path d="M349,115.7H322.3v-1.8h6.2V51.3h-6.2V49.5h29.2c23.4,0,36.3,8.4,36.3,32C387.8,108.2,371.6,115.7,349,115.7Zm1.5-1.8c12.8,0,17.8-8.2,17.8-29.4V79c0-23-5.9-27.7-19.1-27.7H347v62.6Z"/><path d="M427.9,48.5c20.3,0,30.6,12.5,30.6,34,0,21.1-9.9,34.2-31.8,34.2-21.1,0-31.2-12.2-31.2-33C395.6,61.9,406.8,48.5,427.9,48.5Zm11.2,31c0-19.4-.6-29-11.9-29S415,60.5,415,79.9v6.8c0,17.8,1.1,28,12.2,28,10.6,0,11.9-9.2,11.9-28.2Z"/><rect x="30.4" y="144.6" width="138.4" height="5.8"/><rect x="30.4" y="155" width="138.4" height="5.8"/><rect x="302.6" y="144.6" width="138.4" height="5.8"/><rect x="302.6" y="155" width="138.4" height="5.8"/><path d="M203.8,163.6H189.4v-3l5.2-5.2q2.25-2.4,3-3.3a9.5,9.5,0,0,0,1-1.7,4.53,4.53,0,0,0,.3-1.6,2,2,0,0,0-.7-1.8,3,3,0,0,0-1.8-.6,4.56,4.56,0,0,0-2.3.5,16.68,16.68,0,0,0-2.4,1.6l-2.4-2.8a14.37,14.37,0,0,1,2.5-1.8,8.26,8.26,0,0,1,2.2-.8,12.22,12.22,0,0,1,2.6-.3,8,8,0,0,1,3.4.7,5.5,5.5,0,0,1,2.3,2,6,6,0,0,1,.8,2.9,8.57,8.57,0,0,1-.5,2.7,13.5,13.5,0,0,1-1.5,2.6,32.32,32.32,0,0,1-3.7,3.7l-2.6,2.5v.2h9Z"/><path d="M225.9,153.3c0,3.6-.6,6.3-1.8,8a6.87,6.87,0,0,1-9.7,1.1,6.79,6.79,0,0,1-1.2-1.2c-1.2-1.8-1.8-4.4-1.8-7.9s.6-6.3,1.8-8a6.76,6.76,0,0,1,9.6-1.1l1.2,1.2C225.3,147.2,225.9,149.8,225.9,153.3Zm-10,0a14.11,14.11,0,0,0,.7,5.4,2.42,2.42,0,0,0,2.9,1.6,2.54,2.54,0,0,0,1.6-1.6,16.72,16.72,0,0,0,.7-5.4,14.11,14.11,0,0,0-.7-5.4,2.27,2.27,0,0,0-4.4,0A12.26,12.26,0,0,0,215.9,153.3Z"/><path d="M244.7,163.6h-4.4V149.7l.1-2.1a14.36,14.36,0,0,1-1.5,1.4l-2.4,1.9-2.1-2.6L241,143h3.6v20.6Z"/><path d="M258.2,163.6l7.8-16.9H255.8V143h14.8v2.7l-7.8,17.9Z"/><path d="M52.5,199.9a9.27,9.27,0,0,1-2.7,6.8,7.89,7.89,0,0,1-3.1,2,10.88,10.88,0,0,1-4,.7H35.3v-19h7.4a10.88,10.88,0,0,1,4,.7,7.89,7.89,0,0,1,3.1,2,9.85,9.85,0,0,1,2,3A8.3,8.3,0,0,1,52.5,199.9Zm-4.5,0a6.9,6.9,0,0,0-.4-2.5,4.35,4.35,0,0,0-1-1.9,5.23,5.23,0,0,0-1.7-1.2,5.87,5.87,0,0,0-2.3-.4H39.7V206h2.9a6.2,6.2,0,0,0,2.3-.4,6.57,6.57,0,0,0,1.7-1.2,5,5,0,0,0,1-1.9,8.24,8.24,0,0,0,.4-2.6Z"/><path d="M96,193.8v4.4h6v3.3H96V206h7.8v3.4H91.6v-19h12.2v3.4Z"/><path d="M153.5,194.3a1.76,1.76,0,0,1-.4.5,1.42,1.42,0,0,1-.6.2,1.07,1.07,0,0,1-.6-.2l-.8-.4a4.18,4.18,0,0,0-1-.4,5.07,5.07,0,0,0-1.3-.2,2.27,2.27,0,0,0-1.8.5,2,2,0,0,0-.6,1.4,1,1,0,0,0,.4.9,2.07,2.07,0,0,0,1,.6,5.78,5.78,0,0,0,1.4.5,14.24,14.24,0,0,1,1.6.5,11.11,11.11,0,0,1,1.6.7,7.1,7.1,0,0,1,1.4,1,4.48,4.48,0,0,1,1.4,3.4,7.42,7.42,0,0,1-.5,2.5,5.33,5.33,0,0,1-1.3,2,4.65,4.65,0,0,1-2.1,1.3,9.29,9.29,0,0,1-2.9.5,11,11,0,0,1-1.8-.2,12.09,12.09,0,0,1-1.8-.5,8,8,0,0,1-1.6-.8,6.42,6.42,0,0,1-1.3-1l1.3-2.1a.78.78,0,0,1,.4-.4.66.66,0,0,1,.6-.1,1.14,1.14,0,0,1,.8.3l.9.6a9.74,9.74,0,0,0,1.1.5,4,4,0,0,0,1.5.3,3.2,3.2,0,0,0,1.9-.5,2.06,2.06,0,0,0,.7-1.7,1.5,1.5,0,0,0-.4-1.1,3.59,3.59,0,0,0-1-.7,6.94,6.94,0,0,0-1.3-.5,14.24,14.24,0,0,1-1.6-.5c-.5-.2-1.1-.4-1.6-.6a4.51,4.51,0,0,1-1.4-1,4,4,0,0,1-1-1.5,5.7,5.7,0,0,1-.4-2.2,5.22,5.22,0,0,1,.4-2.1,4.63,4.63,0,0,1,1.3-1.8,8.58,8.58,0,0,1,2-1.3,8.68,8.68,0,0,1,2.8-.5,9.7,9.7,0,0,1,1.7.1,9.36,9.36,0,0,1,1.6.4c.5.2.9.4,1.4.6a8.34,8.34,0,0,1,1.2.8Z"/><path d="M198.3,209.4h-4.4v-19h4.4Z"/><path d="M247.5,199.5h6.8v8a11.39,11.39,0,0,1-3.1,1.6,13.32,13.32,0,0,1-3.4.5,12.51,12.51,0,0,1-4.3-.7,8.9,8.9,0,0,1-5.4-5.1,10.06,10.06,0,0,1-.8-3.9,10.36,10.36,0,0,1,.7-3.9,7.89,7.89,0,0,1,2-3.1,8.25,8.25,0,0,1,3.2-2,11.41,11.41,0,0,1,4.1-.7,16.35,16.35,0,0,1,2.2.2,10.55,10.55,0,0,1,1.9.5,7.89,7.89,0,0,1,2.9,1.8l-1.3,1.9a1.24,1.24,0,0,1-.8.6,1.16,1.16,0,0,1-1-.2,9.25,9.25,0,0,0-1-.5,4.55,4.55,0,0,0-1.9-.6c-.4,0-.8-.1-1.2-.1a5.38,5.38,0,0,0-2.2.4,6.57,6.57,0,0,0-1.7,1.2,7.24,7.24,0,0,0-1.1,1.9,6.9,6.9,0,0,0-.4,2.5,8.42,8.42,0,0,0,.4,2.7,4.66,4.66,0,0,0,1.2,2,4.39,4.39,0,0,0,1.8,1.2,6.05,6.05,0,0,0,2.4.4,6.15,6.15,0,0,0,1.4-.1,9.29,9.29,0,0,0,1.3-.4v-2.9h-1.9a1.07,1.07,0,0,1-.6-.2c-.2-.1-.2-.3-.2-.6Z"/><path d="M310.3,190.4v19H308a1.49,1.49,0,0,1-.9-.2,1.34,1.34,0,0,1-.7-.6l-9-11.3c0,.3.1.7.1,1v11.1h-3.9v-19h2.8a.76.76,0,0,1,.4.1c.1.1.2.1.3.2a1.38,1.38,0,0,1,.3.4l9,11.4c0-.4-.1-.7-.1-1.1v-11Z"/><path d="M354.8,193.8v4.4h6v3.3h-6V206h7.8v3.4H350.4v-19h12.2v3.4Z"/><path d="M417.3,209.4h-4a1.94,1.94,0,0,1-1.6-.8l-3.1-5.5a1.21,1.21,0,0,0-.5-.5,1.88,1.88,0,0,0-.8-.2h-1.1v7h-4.4v-19H408a13.42,13.42,0,0,1,3.5.4,5.45,5.45,0,0,1,2.4,1.2,3.8,3.8,0,0,1,1.3,1.8,5.7,5.7,0,0,1,.4,2.2,8.81,8.81,0,0,1-.2,1.7,5.43,5.43,0,0,1-1.9,2.8,6.47,6.47,0,0,1-1.6.9,1.56,1.56,0,0,1,.8.6,2.7,2.7,0,0,1,.7.8ZM408,199.3a7.72,7.72,0,0,0,1.5-.2,3.33,3.33,0,0,0,1-.6,2.36,2.36,0,0,0,.6-.9,5,5,0,0,0,.2-1.2,2.56,2.56,0,0,0-.8-1.9,3.67,3.67,0,0,0-2.5-.7h-1.8v5.6H408Z"/><path d="M214.1,20.9H202.2V.3h11.9V3.9h-7.5V8.4h7V12h-7v5.3h7.5Z"/><path d="M236.4,15.2a5.4,5.4,0,0,1-2,4.4,8.57,8.57,0,0,1-5.6,1.6A14.35,14.35,0,0,1,223,20V15.9a20.94,20.94,0,0,0,3.5,1.3,11.71,11.71,0,0,0,2.6.4,4.19,4.19,0,0,0,2.2-.5,2.09,2.09,0,0,0,.8-1.6,2,2,0,0,0-.3-1.1,2.84,2.84,0,0,0-1-.9c-.9-.5-1.8-1-2.7-1.4a10,10,0,0,1-2.8-1.7,7,7,0,0,1-1.5-1.9,5.8,5.8,0,0,1,1.3-6.8A7.94,7.94,0,0,1,230.2.1a11,11,0,0,1,3.1.4,19.17,19.17,0,0,1,3.1,1.1L235,5c-.9-.4-1.8-.7-2.7-1a7.61,7.61,0,0,0-2.1-.3,3.08,3.08,0,0,0-1.9.6,2.13,2.13,0,0,0-.7,1.5,1.69,1.69,0,0,0,.3,1,2.36,2.36,0,0,0,.9.8c.9.5,1.8,1,2.8,1.5a11.16,11.16,0,0,1,4,2.8A6,6,0,0,1,236.4,15.2Z"/><path d="M253.9,20.9h-4.4V3.9h-5.6V.3h15.6V3.9h-5.6Z"/></svg>