<svg xmlns="http://www.w3.org/2000/svg" viewBox="0 0 363 159.9"><title>logo-2</title><path d="M111.1,58V68.1h-.8c-1.4-9.7-13.7-9.3-15.8-9.3H92V76.6h2.7c.8,0,7.9.2,8.6-5.5h.8v12h-.8c-.7-5.8-7.9-5.6-8.6-5.6H92V89.4c0,5.8,2,6.2,4.4,6.2v.8H82.2v-.8c2.4,0,3.1-2.4,3.1-6.1V64.7c0-3.4-.7-5.9-3.1-5.9V58Z"/><path d="M158.1,96.6h-4.6c-8.4-.1-7.3-.1-10.8-11.9A7.64,7.64,0,0,0,135,79h-2.6V90.4c0,3.8,1.5,5.4,3.8,5.4v.8H122.1v-.8c2.4,0,3.7-1.5,3.7-5.7V63.4c0-3.4-1.3-4.6-3.7-4.6V58h12c10.9,0,17.8,1.3,17.8,10.5,0,7.1-4.3,9.4-10.5,10,3.6-.1,7.7,1.3,10.4,12.2a6.72,6.72,0,0,0,6.2,5.1ZM134.2,58.9h-1.7V78.2h1.7c5.8,0,10.3,0,10.3-9.6s-4.7-9.7-10.3-9.7Z"/><path d="M204.7,96.6h-14v-.8c3.6,0,1.9-4.5,1.3-6l-1.8-4.4H176.6c-.8,2.2-3.7,10.7,4.5,10.4v.8H168.2v-.8c1.8-.1,3.1,0,8.2-12.8l9.4-25h.7c10.1,24.2,13.8,33.5,13.8,33.5,1.8,4.4,3.1,4.1,4.5,4.2v.9ZM189.8,84.5l-6.8-17-6.3,17.1Z"/><path d="M258.2,58v.8c-8.1-.1-7.9,10.4-7.9,12.9V96.5h-2.4L224.3,66.4V82.6c0,2.5,0,13,7.3,13v.8H215.4v-.8c8,0,8-10.6,8-13v-17l-2.2-2.8c-3.5-4.4-5.1-3.9-6.5-4V58h11.8l22.9,28.9V71.8c0-2.5,0-13-7.3-12.9V58Z"/><path d="M302.3,85.1l.7,8.6c-4.1,2.7-7.8,3.4-13.7,3.4-11.6,0-19-8.2-19-19.8s7.5-19.8,19-19.8c5.6,0,10.3.6,13.7,3.4l-.7,8.5h-.8c-2.3-8.2-6.8-11.1-12.2-11.1-5.9,0-10.6,3.2-10.6,19s4.8,18.9,10.6,18.9c5.5,0,11.1-3.9,12.2-11.1Z"/><path d="M334.7,97.1c-12,0-18.4-8.6-18.4-19.5s6.3-20.1,18.4-20.1,18.4,9.2,18.4,20.1S346.8,97.1,334.7,97.1Zm0-38.7c-6.5,0-10.5,4.2-10.5,19.2s4,18.7,10.5,18.7,10.4-3.6,10.4-18.7S341.2,58.4,334.7,58.4Z"/><rect x="8.4" y="58" width="56.6" height="7.5"/><rect x="8.4" y="73.6" width="56.6" height="7.5"/><rect x="8.4" y="89.1" width="56.6" height="7.5"/><rect y="58" width="64.9" height="7.5"/><rect y="73.6" width="64.9" height="7.5"/><rect y="89.1" width="64.9" height="7.5"/><path d="M32.7,27.6l.7,8.5c-4.1,2.7-7.8,3.4-13.7,3.4C8.1,39.5.7,31.3.7,19.7S8.2,0,19.8,0C25.4,0,30,.6,33.5,3.3l-.7,8.6H32C29.6,3.7,25.1.8,19.8.8,13.9.8,9.2,4,9.2,19.8s4.8,19,10.6,19c5.5,0,11.1-4,12.2-11.1Z"/><path d="M75.6,31.6c0,4.5-.3,5.9,2.6,6.6V39H67.7v-.8c1.5-.5,1.4-1.9,1.4-6.6V21.1H55V31.6c0,5-.1,6.1,1.4,6.6V39H45.8v-.8c2.9-.8,2.6-1.8,2.6-6.6V8.2c0-4.6,0-6.4-2.6-6.9V.5H56.4v.8C54.9,1.8,55,3.4,55,8.2V20H69.1V8.2c0-4.8.1-6.4-1.4-6.9V.5H78.2v.8c-2.6.5-2.6,2.2-2.6,6.9Z"/><path d="M125.3,39.1h-4.6c-8.4-.1-7.3-.1-10.8-12a7.75,7.75,0,0,0-7.7-5.7H99.6V32.8c0,3.8,1.5,5.4,3.8,5.4V39h-14v-.8c2.4,0,3.7-1.5,3.7-5.7V5.9c0-3.4-1.3-4.6-3.7-4.6V.5h12c10.9,0,17.8,1.3,17.8,10.5,0,7.1-4.3,9.4-10.5,10,3.6-.1,7.7,1.3,10.4,12.2a6.72,6.72,0,0,0,6.2,5.1ZM101.4,1.3H99.7V20.6h1.7c5.8,0,10.3,0,10.3-9.7S107,1.3,101.4,1.3Z"/><path d="M152.3.5v.8c-2.4,0-4.3,1.2-4.3,4.6V32.8c0,3.7,2,5.4,4.3,5.4V39H137v-.8c2.4,0,4.3-1.7,4.3-5.4V5.9c0-3.4-1.9-4.6-4.3-4.6V.5Z"/><path d="M179.7,39.5c-9.8,0-14-3.2-14-3.2V25.8h.8c.9,5,3.7,12.9,13.2,12.9,7.1,0,8.5-8.6,2-13.3L173,19.8c-6.5-4.2-10.5-9.4-6.1-15.6,0,0,2.7-4.2,10.9-4.2,8.6,0,13.3,2.6,13.3,2.6v9.2h-.8c-.8-4.2-3.5-11-12.4-11-5.9,0-9.3,7.4-1.6,12.4l8.8,5.8c7.3,4.8,9.4,10.8,5.9,16C190.8,35.1,188.3,39.5,179.7,39.5Z"/><path d="M239.8.5V10.9H239c-.3-9.4-10.7-9.5-11.1-9.5h-2.1V33.2c0,3.7,2,5.1,4.3,5.1v.8H214.8v-.8c2.3,0,4.3-1.5,4.3-5.1V1.3H217c-.8,0-10.7.2-11.1,9.5H205V.5Z"/><path d="M267.6.5v.8c-2.4,0-4.3,1.2-4.3,4.6V32.8c0,3.7,2,5.4,4.3,5.4V39H252.3v-.8c2.4,0,4.3-1.7,4.3-5.4V5.9c0-3.4-1.9-4.6-4.3-4.6V.5Z"/><path d="M322.4.5v.8c-8.1,0-7.9,10.4-7.9,12.9V39h-2.4L288.5,9V25.2c0,2.5,0,13,7.3,13V39H279.6v-.8c8,0,8-10.6,8-13V8.1l-2.2-2.8c-3.5-4.4-5.1-3.9-6.5-4V.5h11.8l22.9,28.9V14.2c0-2.5,0-13-7.3-12.9V.5Z"/><path d="M363,27.4V39.1H333.8v-.8c2.3,0,3.1-2.4,3.1-6.1V7.2c0-3.4-.7-5.9-3.1-5.9V.5h28.5V10.7h-.8c-.9-9.3-13.1-9.3-15.3-9.3h-2.5V19.3h2.7c.8,0,7.8,0,8.3-5.6h.8V25.8h-.8c-.4-5.7-7.6-5.7-8.3-5.7h-2.7V38.3H346c2.4,0,14.5.1,16.3-10.8h.7Z"/><path d="M93,144.3c-3-1.7-2-8.1,0-11.3a4.94,4.94,0,0,1,3.2-2.6,2.77,2.77,0,0,1,3.4,1.7,26.93,26.93,0,0,1-.3-4c.3-4.1.7-8.2,2.4-12a17.1,17.1,0,0,1,1.3-2.3c.2-.3.3-.6.6-.7a1.78,1.78,0,0,1,1-.4,1.3,1.3,0,0,1,1.2.8,5,5,0,0,1,.6,2.4,7,7,0,0,1-.2,2.9,20.25,20.25,0,0,1-.9,3.3,3.55,3.55,0,0,1-.4.9,13,13,0,0,0-.8,1.7,17.38,17.38,0,0,0-1,1.9.6.6,0,0,0-.1.4c.1,2.2,0,3.2.1,5.5a45.25,45.25,0,0,0,.7,7.4,2.76,2.76,0,0,0,1.2,1.9c.6.6,1.6-.1,2.1-.3a9.62,9.62,0,0,0,2.2-1.8,6.47,6.47,0,0,0,.8-.9,5.26,5.26,0,0,0,1.2-1.4,20.11,20.11,0,0,1,2.3-2.8,13.29,13.29,0,0,1,2.6-2.1,6.07,6.07,0,0,1,1-.7,25.61,25.61,0,0,1,4.6-1.1h.3c.1,0,.4,0,.4.2s0,.2-.1.3a3,3,0,0,1-.8.4c-2,.4-2.9.3-4,1-.6.4-1.2.8-1.7,1.2a12.18,12.18,0,0,0-3.1,2.9c-1.2,1.7-2.1,3.4-3.4,4.9v.1c-1.1,1-2.7,2.6-4.3,2.4-1.4-.2-2.2-1.8-2.9-2.9-.6-1.5-1.4-4.4-1.6-4.6-.3.6-.2.9-.5,1.6-.4,1.2-.9,2.3-1.4,3.5s-.9,2.1-2,2.8A4,4,0,0,1,93,144.3Zm5.4-5a28.64,28.64,0,0,0,1.5-4.1,4.92,4.92,0,0,0-.6-1.7c-.4-.9-1.2-2-1.7-2a2.85,2.85,0,0,0-1.9,1.5,12.2,12.2,0,0,0-1.5,7c0,1,.3,2.1.9,2.4,1.1.1,2.4-.4,3.3-3.1Zm4.7-14.4a14.65,14.65,0,0,0,1.4-2.8,18.73,18.73,0,0,0,.8-3.2c0-.7.2-1.3.2-2a13.4,13.4,0,0,0-.1-2,2.07,2.07,0,0,0-.6-1,.77.77,0,0,0-1,.1.35.35,0,0,0-.1.2l-.2.7c-.4,6.6-.4,7.1-.4,10Z"/><path d="M120.9,141.4a6.13,6.13,0,0,1-.4-.6,6.47,6.47,0,0,1-.4-1.3c-.6-1.6.1-5.7.3-6.3a8,8,0,0,1,3.7-4.2,1.57,1.57,0,0,1,1.7.5c1.4,1.4.1,5.9-3.1,7.3-.1.1-.2.2-.1.4a4.2,4.2,0,0,0,4.4,3.3,9.36,9.36,0,0,0,1.6-.4c1.5-.6,3-2.6,4.3-3.8a8.7,8.7,0,0,1,1.1-.9c.6-.6,1.2-1,1.7-1.5,3.7-2.1,6.7-1.3,7.7-1.8l.3.7c-2.6,0-6.7.8-8.5,2.5a16.32,16.32,0,0,0-2,1.7c-.3.4-.2.3-1.9,2.5-.4.4-.8.9-1.1,1.2a10.1,10.1,0,0,1-1.6,1.3C126.2,143.8,122.4,143.5,120.9,141.4Zm3.8-7.8a8.87,8.87,0,0,0,.8-3.2c-.1-.4-.4-.7-.8-.5a3.31,3.31,0,0,0-1.4,1.9,19.73,19.73,0,0,0-.7,2.6,12.1,12.1,0,0,0-.1,1.9A9.34,9.34,0,0,0,124.7,133.6Z"/><path d="M140.9,142.8a5.29,5.29,0,0,1,2.6-3.6,6,6,0,0,0-.6-1.9,23.94,23.94,0,0,0-1.3-2.8,1.93,1.93,0,0,0-.3-1,5.75,5.75,0,0,1-.5-2.6c.1-1.3.5-2.9,1.6-3.6a2.35,2.35,0,0,1,2.5-.7,1.89,1.89,0,0,1,1.1,1.2,3,3,0,0,1-1.6,3.4c-.3.1-.6.1-1,.2,0,0,.3.7.7,1.5a18.67,18.67,0,0,0,1.5,3.2c.3.6.6,1,.8,1.5,1.1-.1,2.3-.8,3.6-.8a21.84,21.84,0,0,0,6.2-1.1,9.38,9.38,0,0,0,1.5-.6l3.7-2.1.1.8a30.69,30.69,0,0,1-6.4,2.9,8.47,8.47,0,0,1-1.7.4,11.53,11.53,0,0,0-2.6.3,8.53,8.53,0,0,0-3.5.8.76.76,0,0,1-.5.2c-.2.2.1.4.1.7a12.61,12.61,0,0,1,.4,2.8,4.31,4.31,0,0,1-.8,2.4,5.07,5.07,0,0,1-3.2,1.9C141.7,146.5,140.6,144.3,140.9,142.8Zm3.4,1.8a6.15,6.15,0,0,0,.1-1.4,8.2,8.2,0,0,0-.3-3.1l-1,.6a3.52,3.52,0,0,0-1,1.9,2.44,2.44,0,0,0,.1,2.2C142.8,145.7,144,145.8,144.3,144.6Zm.8-14.7c.6-.6,1-2.2-.3-2.2a2.2,2.2,0,0,0-.8.1c-1.5.9-.8,3-.8,3A5.09,5.09,0,0,0,145.1,129.9Z"/><path d="M183,131.3c-.2.2-.1.4-.2.4-3.4-.7-8.7,3-9.8,3.9l-1.7,1.7c-.4.4-2.1,2.2-3.1,3.2-.3.3-.5.6-.8.9a10.92,10.92,0,0,1-1.7,1.3,4,4,0,0,1-2.4.7c-1.7-.3-1.7-2-2-3.9a20.08,20.08,0,0,1-.1-2.5c.2-2.2,0-4.4.4-6.7.2-.8-.1-1,1.2-1.2l1.4-.3c.8-.1.9.5.8,1.5-.2.8-.3,1.7-.5,2.6-.2,1.5-.5,3-.7,4.5a12.67,12.67,0,0,0-.4,3.4.88.88,0,0,0,.8.9,2.72,2.72,0,0,0,1.7-.6,32.46,32.46,0,0,0,3.9-3.5c.7-.7,4-4,5-4.7a16.45,16.45,0,0,1,7.8-2C182.8,130.9,182.7,131,183,131.3Zm-20-8c.3-.5.5-1.1,1-1.3s1.6.3,1.6.9a1.38,1.38,0,0,1-.2,1.6,1.68,1.68,0,0,1-1.8.2c-.5-.5-.9-.9-.6-1.4Z"/><path d="M182.6,159.6a.1.1,0,0,1-.1-.1c-.8-.6-1.6-1-1.8-2.1a10.88,10.88,0,0,1,0-3.6,12.76,12.76,0,0,1,2.6-5.2,17,17,0,0,1,2.9-3.1,10.1,10.1,0,0,0,1.6-1.3c.2-.1.4-.4.3-.6v-.8l.4-3.2c.1-.5.2-3.4.3-4.5A10.89,10.89,0,0,1,185,140a3.88,3.88,0,0,1-3.6.6c-2.2-1-1.7-5.3-1.6-5.9a12.42,12.42,0,0,1,1.5-4.2,4,4,0,0,1,4.1-2.1c.5,0,2.7.4,2.8.7a.52.52,0,0,1-.2.4,13.4,13.4,0,0,0-2-.1c-.8.2-1.1.1-1.8,1.4-.6.6-1.7,5.6-1.2,7.3a1.24,1.24,0,0,0,1.4,1.1,1.49,1.49,0,0,0,.7-.3,10.43,10.43,0,0,0,3.1-4.4c.8-1.1,1.1-4.5,1.6-5.4.2-.2.2-.4.6-.5l.9-.2h.7c.4,0,.7.2.6.7-.1.3-.2.7-.3,1,0,.1-.1.2-.1.4-.2,1.1-.4,2.2-.7,3.4a14.32,14.32,0,0,0-.3,2.3c-.2,1.2-.3,2.5-.5,3.6l-.2,1.8c-.1.6,0,1,.1.8a13,13,0,0,0,1.7-.8c.7-.4,1.4-.9,2.1-1.3a22,22,0,0,1,1.8-1.4,11.51,11.51,0,0,1,1.7-1.4c.6-.4,1.2-.9,1.8-1.3.7-.6,4.1-3,4.6-3.4a15.87,15.87,0,0,1,2-.7l-1.3,1.1c-.6.4-2.9,2.1-3.4,2.6l-2.2,1.5c-.8.7-1.7,1.4-2.5,2.1a17.83,17.83,0,0,1-3.6,2.5,12.71,12.71,0,0,0-2.7,1.8c-.1,1.3-.4,4.9-.6,6.2-.1.8-.2,1.3-.3,2.1a19.35,19.35,0,0,1-2,5.7,5.72,5.72,0,0,1-1.1,1.6,2.93,2.93,0,0,1-1.6.7A10.93,10.93,0,0,1,182.6,159.6Zm2.1-2.2a3.55,3.55,0,0,0,1.1-1.6c.4-.9.7-1.8,1-2.7a38.39,38.39,0,0,0,1.1-5.9c0-.3.2-1.7.2-2.1H188c-.3.2-.6.5-.9.7a8.52,8.52,0,0,0-1.7,1.6,8.9,8.9,0,0,0-2.1,2.6,11.51,11.51,0,0,0-1.2,2.5c-.3.8-1.6,4.6.5,5.9C183.3,158.6,184.3,157.7,184.7,157.4Z"/><path d="M203.8,143.6c-.4-.1-.7-3.4-.4-5.5.3-4.2-.1-8.3.8-8.3a4.53,4.53,0,0,1,1.6.3,1.51,1.51,0,0,1,.6,1.7c-.3,3.2-.4,5.6-.7,9,.5-1.4,1.1-2.8,1.7-4.2a6.94,6.94,0,0,0,.5-1.3,8.11,8.11,0,0,1,1-1.8l.7-.9a5.73,5.73,0,0,1,1.1-1.1,2,2,0,0,1,.8-.4,2.89,2.89,0,0,1,1.8-.3.76.76,0,0,1,.5.2,1.52,1.52,0,0,1,.7,1.2,8.75,8.75,0,0,1,.2,1.6c.2,2.6,0,4.5.8,6.8a1.79,1.79,0,0,0,.5.7.3.3,0,0,0,.4,0h0a23.48,23.48,0,0,0,2.9-2.6,34,34,0,0,1,2.1-2.8,6.79,6.79,0,0,1,1.2-1.2,10.88,10.88,0,0,1,7.9-3.8.19.19,0,0,1,.3,0c.2.2,0,.4-.2.5-.7.4-5.1,1.6-5.8,2.3s-1.3,1-1.8,1.6a4.44,4.44,0,0,0-.8,1.1c-.1.1-1,1-1,1.2a27.31,27.31,0,0,1-4.9,5.3H216a2.54,2.54,0,0,1-1.9-.2,12,12,0,0,1-1.2-1.1,5.9,5.9,0,0,0-.4-.8,5.08,5.08,0,0,1-.3-1.7l-.3-3.2a13.05,13.05,0,0,0-.3-3.4c-.1-.3-.3-.3-.6-.2-1.5,1-2.2,3.5-2.9,5.2a55.27,55.27,0,0,0-2,6.6c-.1.3-.2.6-.5.7S204,143.9,203.8,143.6Zm26.3-12Z"/><path d="M230.1,142.2a5.31,5.31,0,0,1-2.4-3.1c-.1-.3,0-.6-.1-.8,0-2.1.8-5.5,2.2-7.1a7.55,7.55,0,0,1,2.6-2.1c.8-.4,2.2.4,2.9.9a1.94,1.94,0,0,1,.7,1.9,6.25,6.25,0,0,1-1.9,3.2,4.52,4.52,0,0,1-2.4,1.4.64.64,0,0,0-.5.5c-.3,2.3.7,4.3,3.7,4,2.2-.2,3.2-1.1,5-2.5h-.1c.2-.1.3-.3.5-.3a47.16,47.16,0,0,1,4.8-4.1c2.4-1.5,4.4-2.9,7-2.7.3,0,.6.1.6.3s-.3.3-.6.3c-3.6.3-2,.6-5.9,2.3a37.92,37.92,0,0,0-4,3c-.3.2-2.9,2.5-4.1,3.4-1.5.9-3.5,2.3-5.2,2.3A8.29,8.29,0,0,1,230.1,142.2Zm1.8-6.9a8.34,8.34,0,0,0,1.2-.8,5.78,5.78,0,0,0,1.8-2.3,1.2,1.2,0,0,0,0-1.4c-1.2.4-3.4,3.1-3.7,4.8a1.08,1.08,0,0,0,.7-.3Z"/><path d="M252.4,140.4c.3-1.5.5-2.8.8-4.3a7.94,7.94,0,0,0,.6-2.2c0-1.2-1.6-1.1-2.6-1.2a3,3,0,0,1-2-1c-1.1-1.3-.4-3.5,1.2-4.7a1,1,0,0,1,1.5.1.52.52,0,0,1,.2.4,6.52,6.52,0,0,1,.2,2.4l-.2,1.2c1.2.8,2.4.6,3.7,1.2a1.14,1.14,0,0,1,.8,1.4,6.45,6.45,0,0,1-.3,2c-.3,1.2-.7,2.4-1.1,3.6s-1,3-.7,4.3c.5,2.5,2,3.1,4,1.5,1.8-1.2,4.6-4.5,6-6s7.1-4.2,9.2-4.2c0,0,.2.9-.2.9a18.63,18.63,0,0,0-6.8,2.5,21.27,21.27,0,0,0-3,3c-.6.6-2.3,2.6-3,3.4-2.2,1.9-5,3.2-6.8,1.9C252.8,145.8,251.8,142.9,252.4,140.4Zm-.8-11.2a2.44,2.44,0,0,0,0-1.2.64.64,0,0,0-.8-.6h0a1.09,1.09,0,0,0-.7,1.2c.1.8-.1,1.7,1.2,2.3A10.1,10.1,0,0,0,251.6,129.2Z"/></svg>