<svg xmlns="http://www.w3.org/2000/svg" viewBox="0 0 405.9 253"><title>logo-4</title><polygon points="242 243 9 243 9 10 242 10 242 41.7 252 39.7 252 0 0 0 0 253 252 253 252 212.3 242 214.5 242 243"/><path d="M88.4,103.5a8.07,8.07,0,0,1-.8,11.4l-.2.2a8.34,8.34,0,0,1-11.6-1,6.4,6.4,0,0,1-1.6-5.6c.4-2.5-9.5,1-14.1,11v36.8c0,8.3.7,10.5,6.1,11.8V170h-25v-1.9c5.6-1.6,5.9-4.1,5.9-11.8v-41c0-5.2-1.3-7.3-7.4-8.9v-1.8l20.4-4.3v15.5c5.5-10.1,13.9-14.4,19.8-15.1C82.7,100.4,86.4,101.1,88.4,103.5Z"/><path d="M156.4,160.5l1.8.7c-.9,4.4-5.9,10.1-13.6,10.1,0,0-11.7.3-12.6-12.4-2.1,7.1-10.6,12.4-21,12.4,0,0-16.9,0-16.9-15.3,0-14.8,12.6-18.1,37.9-24.6v-8.6c0-15.3-7.7-23.8-19.5-18.4-5.8,2.8-6.7,5.6-5.8,5.8a6.7,6.7,0,0,1,4.6,2.7,6.86,6.86,0,0,1-1.5,9.6h0a6.52,6.52,0,0,1-9.2-1l-.3-.3a6.89,6.89,0,0,1-.7-7.3c1-2.2,3.6-6.7,11.6-11a29.17,29.17,0,0,1,13.6-2.8c16.1,0,20.6,12,20.6,29.6V155s-.1,9.3,6.7,9.3A4.87,4.87,0,0,0,156.4,160.5ZM107.2,153c0,4.3,2.7,11.7,11.7,11.7,7.8,0,11.5-5.6,13-9.2V133.4c-17.1,4.1-24.6,10.7-24.7,19.6Z"/><path d="M226.1,151.8c-1.6,7.4-9.2,19.5-27.4,19.5-16.6,0-32.3-13.6-32.3-35.4,0-18.2,13.3-35.7,36-35.7,14.5,0,19,6.7,20.3,9a7.57,7.57,0,0,1,.2,7.3c-1.9,3.1-6.4,4.4-9.5,2.5a6.82,6.82,0,0,1-2.6-9.2c0-.1.1-.1.1-.2a5.87,5.87,0,0,1,4.1-3.1c1.3-.3-2.7-4.4-12.6-4.4-5.9,0-22.2,4.4-22.2,32.1,0,19.7,11.1,27.8,21.6,28.9,10.8.9,20-6.1,22.6-12.1Z"/><path d="M300.6,170H275.9v-1.8c5.6-1.6,5.9-4.4,5.9-12V124.7c0-10.6-5-16.9-15.4-16.9-7.4,0-12.9,6.8-15.3,11.8v36.6c0,8.1.7,10.5,6.1,11.8v1.9h-25V168c5.6-1.6,5.9-4.3,5.9-11.8V75.1c0-5.2-1.3-7-7.4-8V65.2l20.4-4.4V117c2.2-8.4,13.3-16.7,22.9-16.7,12.1,0,20.4,6.1,20.4,23.8v32.1c0,8.1.9,10.7,6.1,12Z"/><path d="M367.7,152.5c-1.6,6.9-9.8,18.8-27.2,18.8-18.5,0-31.7-15.4-31.7-34.9,0-21.9,13.9-36.1,32.3-36.1,17.2,0,29,11,29,34.2H322.8c.6,20,9.5,28,21.2,29.2,8.9.9,19.4-4.6,22-11.8Zm-10.4-20c0-21.6-9.6-30.4-16.7-30.4-8.4,0-17.9,11.7-17.9,30.4Z"/><path d="M405.9,170H381v-1.9c5.6-1.6,5.9-4.1,5.9-11.7V75.1c0-5.2-1.3-7.3-7.4-8.4V64.8l20.4-4v95.6c0,8.1.7,10.4,5.9,11.7Z"/><path d="M68.4,186.1l-4.3,13.7H61.8l-3-9.4a2.35,2.35,0,0,1-.2-.8c0,.1-.1.3-.1.4l-.1.4-3,9.4H53.1l-4.3-13.7h2a1.27,1.27,0,0,1,.6.1c.1.1.3.3.3.4l2.3,8.2a1.48,1.48,0,0,1,.1.7c0,.2.1.5.1.7.1-.3.1-.5.2-.8a4.17,4.17,0,0,1,.2-.6l2.7-8.2a1.38,1.38,0,0,1,.3-.4c.2-.1.3-.2.5-.2H59c.2,0,.4,0,.5.2s.2.3.3.4l2.7,8.2c.1.4.3.9.4,1.4.1-.5.2-.9.3-1.4l2.3-8.2c0-.2.1-.3.3-.4a1.42,1.42,0,0,1,.6-.2Z"/><path d="M106.8,199.8h-2.6V186.1h2.6Z"/><path d="M152,197.7v2.1h-8V186.1h2.6v11.6Z"/><path d="M195.3,188.5c-.1.1-.1.2-.2.3a.37.37,0,0,1-.3.1c-.2,0-.3-.1-.4-.1a2.19,2.19,0,0,0-.5-.3,6.89,6.89,0,0,0-.8-.3,1.73,1.73,0,0,0-1-.1,2.77,2.77,0,0,0-.9.1,2.51,2.51,0,0,0-.7.4,1,1,0,0,0-.4.5,1.7,1.7,0,0,0-.1.7,1.14,1.14,0,0,0,.3.8,4.35,4.35,0,0,0,.7.6,4.18,4.18,0,0,0,1,.4l1.2.4a6.12,6.12,0,0,1,1.2.5,3.51,3.51,0,0,1,1.7,1.7,3.93,3.93,0,0,1,.3,1.4,4.67,4.67,0,0,1-.3,1.7,4.19,4.19,0,0,1-.9,1.4,3.77,3.77,0,0,1-1.5.9,4.43,4.43,0,0,1-2,.3,7,7,0,0,1-2.5-.5,3.88,3.88,0,0,1-1.1-.6c-.3-.2-.6-.5-.9-.7l.8-1.2c.1-.1.2-.2.3-.2a.37.37,0,0,1,.3-.1.76.76,0,0,1,.5.2l.7.4a3.55,3.55,0,0,0,.9.4,5,5,0,0,0,1.2.2,2.62,2.62,0,0,0,1.7-.5,2,2,0,0,0,.6-1.5,1.61,1.61,0,0,0-.3-.9,4.35,4.35,0,0,0-.7-.6,4.18,4.18,0,0,0-1-.4,5.64,5.64,0,0,1-1.2-.4c-.4-.1-.8-.3-1.2-.4a3.59,3.59,0,0,1-1-.7,2.59,2.59,0,0,1-.7-1.1,4.15,4.15,0,0,1-.3-1.6,4,4,0,0,1,.3-1.5,3.81,3.81,0,0,1,.9-1.3,4.19,4.19,0,0,1,1.4-.9,6.28,6.28,0,0,1,1.9-.3,5.38,5.38,0,0,1,2.2.4,4.87,4.87,0,0,1,1.8,1.1Z"/><path d="M245.6,192.9a8.68,8.68,0,0,1-.5,2.8,6.36,6.36,0,0,1-1.4,2.2,8.55,8.55,0,0,1-2.2,1.5,7.1,7.1,0,0,1-2.9.5,8.68,8.68,0,0,1-2.8-.5,5.41,5.41,0,0,1-2.2-1.5,6.36,6.36,0,0,1-1.4-2.2,7.73,7.73,0,0,1,0-5.6,6.36,6.36,0,0,1,1.4-2.2,8.55,8.55,0,0,1,2.2-1.5,6.92,6.92,0,0,1,2.8-.5,13.55,13.55,0,0,1,2,.2,8.65,8.65,0,0,1,1.7.7,5.8,5.8,0,0,1,2.4,2.5,4.92,4.92,0,0,1,.6,1.7A4.22,4.22,0,0,1,245.6,192.9Zm-2.6,0a6.45,6.45,0,0,0-.3-2,3.77,3.77,0,0,0-.9-1.5,3.59,3.59,0,0,0-1.4-1,5.55,5.55,0,0,0-3.6,0,4.51,4.51,0,0,0-1.4,1,4.62,4.62,0,0,0-.9,1.5,6.82,6.82,0,0,0,0,4,3.77,3.77,0,0,0,.9,1.5,3.59,3.59,0,0,0,1.4,1,5.55,5.55,0,0,0,3.6,0,4.51,4.51,0,0,0,1.4-1,4.62,4.62,0,0,0,.9-1.5A6.45,6.45,0,0,0,243,192.9Z"/><path d="M293.5,186.1v13.7h-1.3a.75.75,0,0,1-.5-.1,1.38,1.38,0,0,1-.4-.3l-7.2-9.1c0,.4.1.8.1,1.2v8.4H282V186.2h1.6c.1,0,.1,0,.2.1l.2.1.2.2,7.2,9.2V186Z"/></svg>