<svg xmlns="http://www.w3.org/2000/svg" viewBox="0 0 416.8 144.4"><title>logo-1</title><path d="M0,0V113.9H416.8V0ZM411.9,4.9v104H119.1V4.9Zm-297.7,0v104H4.9V4.9Z"/><path d="M204.2,93H195v-.4c1.8,0,2.4-2.1,2.4-5V68.9c0-2.6-.6-5-2.4-5v-.3h9.2c5.8,0,11,0,11,7.1,0,6.4-6.4,7.2-7.2,7.2,2.7,0,9.2.5,9.2,7.6S211.4,93,204.2,93Zm-1.6-28.8V77.8h2.1c2.4,0,5.4-.9,5.4-7.1s-3.5-6.4-5.7-6.4Zm2,14.2h-2.1v14h1.8c3.8,0,7.4.1,7.4-7.1,0-6.7-4.1-6.9-7.1-6.9Z"/><path d="M239.4,63.6v.6c-1.8,0-3.3.9-3.3,3.5V88.3c0,2.8,1.5,4.1,3.3,4.1V93H227.8v-.6c1.8,0,3.3-1.3,3.3-4.1V67.7c0-2.6-1.4-3.5-3.3-3.5v-.6Z"/><path d="M273.7,84.2l.5,6.5c-3.1,2.1-6,2.6-10.4,2.6-8.8,0-14.5-6.3-14.5-15.1s5.7-15.1,14.5-15.1c4.3,0,7.8.4,10.4,2.6l-.5,6.5h-.6c-1.8-6.3-5.2-8.4-9.3-8.4-4.5,0-8.1,2.4-8.1,14.4s3.7,14.4,8.1,14.4a9.5,9.5,0,0,0,9.3-8.5Z"/><path d="M308.8,84.2l.5,6.5c-3.1,2.1-6,2.6-10.4,2.6-8.8,0-14.5-6.3-14.5-15.1s5.7-15.1,14.5-15.1c4.3,0,7.8.4,10.4,2.6l-.5,6.5h-.6c-1.8-6.3-5.2-8.4-9.3-8.4-4.5,0-8.1,2.4-8.1,14.4s3.7,14.4,8.1,14.4a9.5,9.5,0,0,0,9.3-8.5Z"/><path d="M345.4,93H334.7v-.6c2.8,0,1.5-3.4,1-4.6l-1.3-3.3H324c-.6,1.7-2.8,8.2,3.4,7.9V93h-9.8v-.6c1.3,0,2.4,0,6.2-9.7l7.1-19h.5C339.2,82,342,89.2,342,89.2c1.4,3.3,2.3,3.1,3.5,3.2ZM334,83.8l-5.2-13-4.8,13Z"/><path d="M381.1,93h-3.5c-6.4,0-5.5,0-8.2-9.1a5.8,5.8,0,0,0-5.8-4.3h-2v8.7c0,2.9,1.2,4.1,2.9,4.1V93H353.8v-.6c1.8,0,2.8-1.2,2.8-4.3V67.7c0-2.6-1-3.5-2.8-3.5v-.6h9.1c8.3,0,13.6,1,13.6,8,0,5.4-3.3,7.2-8,7.6,2.8-.1,5.9,1,7.9,9.3a5.21,5.21,0,0,0,4.7,3.9ZM362.8,64.2h-1.3V78.9h1.3c4.4,0,7.9,0,7.9-7.4S367.1,64.2,362.8,64.2Z"/><path d="M401.7,63.6v.6c-1.8,0-3.3.9-3.3,3.5V88.3c0,2.8,1.5,4.1,3.3,4.1V93H390v-.6c1.8,0,3.3-1.3,3.3-4.1V67.7c0-2.6-1.4-3.5-3.3-3.5v-.6Z"/><path d="M149.9,40.4l.6,6.5c-3.1,2-6,2.6-10.4,2.6-8.8,0-14.5-6.3-14.5-15.1s5.7-15.1,14.5-15.1c4.3,0,7.8.4,10.4,2.6l-.6,6.5h-.6c-1.8-6.3-5.2-8.4-9.3-8.4-4.5,0-8.1,2.4-8.1,14.4s3.7,14.4,8.1,14.4a9.5,9.5,0,0,0,9.3-8.5Z"/><path d="M182.7,43.4c0,3.4-.2,4.5,2,5V49h-8v-.6c1.1-.4,1.1-1.5,1.1-5v-8H167v8c0,3.8-.1,4.6,1.1,5V49H160v-.6c2.2-.6,2-1.3,2-5V25.6c0-3.5,0-4.9-2-5.3v-.6h8.1v.6c-1.2.4-1.1,1.6-1.1,5.3v9h10.8v-9c0-3.6.1-4.9-1.1-5.3v-.6h8v.6c-2,.4-2,1.6-2,5.3Z"/><path d="M220.6,49.1h-3.5c-6.4,0-5.5,0-8.2-9.1a5.92,5.92,0,0,0-5.9-4.3h-2v8.7c0,2.9,1.2,4.1,2.9,4.1v.6H193.2v-.6c1.8,0,2.8-1.2,2.8-4.3V23.8c0-2.6-1-3.5-2.8-3.5v-.6h9.1c8.3,0,13.6,1,13.6,8,0,5.4-3.3,7.2-8,7.6,2.8-.1,5.9,1,7.9,9.3a5.34,5.34,0,0,0,4.7,3.9ZM202.3,20.3H201V35h1.3c4.4,0,7.9,0,7.9-7.4S206.6,20.3,202.3,20.3Z"/><path d="M241.2,19.7v.6c-1.8,0-3.3.9-3.3,3.5V44.3c0,2.8,1.5,4.1,3.3,4.1V49H229.6v-.6c1.8,0,3.3-1.3,3.3-4.1V23.8c0-2.6-1.4-3.5-3.3-3.5v-.6Z"/><path d="M262,49.5c-7.4,0-10.7-2.5-10.7-2.5V39h.6c.7,3.8,2.8,9.9,10.1,9.9,5.4,0,6.5-6.6,1.5-10.2l-6.7-4.3c-5-3.2-8-7.1-4.6-11.9,0,0,2-3.2,8.3-3.2,6.6,0,10.1,2,10.1,2v7H270c-.6-3.2-2.7-8.4-9.5-8.4-4.5,0-7.1,5.7-1.2,9.5l6.7,4.4c5.5,3.7,7.2,8.2,4.5,12.2C270.5,46,268.6,49.5,262,49.5Z"/><path d="M307.9,19.7v7.9h-.6c-.3-7.1-8.2-7.3-8.5-7.3h-1.6V44.5c0,2.8,1.5,3.9,3.3,3.9V49H288.8v-.6c1.8,0,3.3-1.1,3.3-3.9V20.3h-1.6c-.6,0-8.2.1-8.4,7.3h-.6V19.7Z"/><path d="M329.1,19.7v.6c-1.8,0-3.3.9-3.3,3.5V44.3c0,2.8,1.5,4.1,3.3,4.1V49H317.4v-.6c1.8,0,3.3-1.3,3.3-4.1V23.8c0-2.6-1.4-3.5-3.3-3.5v-.6Z"/><path d="M370.8,19.7v.6c-6.2,0-6.1,7.9-6.1,9.9V49.1H363L345,26.2V38.6c0,1.9,0,9.9,5.6,9.9v.6H338.2v-.6c6.1,0,6.1-8.1,6.1-9.9v-13l-1.7-2.1c-2.7-3.3-3.9-3-5-3.1v-.6h9l17.5,22V30.2c0-1.9,0-9.9-5.6-9.9v-.6Z"/><path d="M401.8,40.2v8.9H379.5v-.6c1.8,0,2.3-1.8,2.3-4.7v-19c0-2.6-.5-4.5-2.3-4.5v-.6h21.7v7.7h-.6c-.7-7-10-7.1-11.7-7.1H387V34h2.1c.6,0,6,0,6.3-4.3h.6v9.2h-.6c-.3-4.3-5.8-4.3-6.3-4.3H387V48.5h1.7c1.8,0,11.1.1,12.4-8.3Z"/><rect x="129.6" y="76.3" width="52" height="4.7"/><path d="M84.6,40.8a2,2,0,0,1-2,2.1h-.1a2.11,2.11,0,0,1-2.1-2.1V35.2A29.71,29.71,0,0,0,77,32.4,31.4,31.4,0,0,0,59.5,27h-.1A14.49,14.49,0,0,0,44.9,41.7V85A31.21,31.21,0,0,0,77,83.2c1.1-.8,2.2-1.8,3.3-2.6,0-.1.1-.1.1-.2V74.7a2.11,2.11,0,0,1,2.1-2.1,2.05,2.05,0,0,1,2.1,2.1V91a2.05,2.05,0,0,1-2.1,2.1h-.1A2.11,2.11,0,0,1,80.3,91V86c-.3.3-.7.5-1,.8a35.74,35.74,0,0,1-33.6,3.4,33.52,33.52,0,0,1-11.1-7.5A32.74,32.74,0,0,1,27,71.5a35.85,35.85,0,0,1,0-27.3A32.74,32.74,0,0,1,34.6,33a35.1,35.1,0,0,1,11.1-7.5,33.7,33.7,0,0,1,13.6-2.7,34.92,34.92,0,0,1,20,6.1,3.92,3.92,0,0,1,1,.8v-5a2.11,2.11,0,0,1,2.1-2.1,2,2,0,0,1,2.1,2V40.8Zm-44.2,1a18.2,18.2,0,0,1,2.9-10.4A28,28,0,0,0,37.6,36a30.78,30.78,0,0,0-.1,43.5l.1.1a33.29,33.29,0,0,0,2.8,2.5Z"/><path d="M37.6,144.2H35.8a.9.9,0,0,1-.5-.1,1.38,1.38,0,0,1-.3-.4l-.9-2.5H29l-.9,2.5c-.1.1-.1.3-.3.4a.76.76,0,0,1-.5.2H25.5l4.9-12.4h2.4Zm-4.1-4.7L32,135.4a1.45,1.45,0,0,1-.2-.7c0-.3-.2-.5-.2-.8a3.09,3.09,0,0,0-.2.8,2.54,2.54,0,0,0-.2.7l-1.5,4.1Z"/><path d="M79.6,144.2H77.5a1.05,1.05,0,0,1-.9-.5l-2.6-4-.3-.3a.9.9,0,0,0-.5-.1h-1v4.9H69.9V131.8h3.8a8.33,8.33,0,0,1,2.2.3,5.07,5.07,0,0,1,1.5.7,3.13,3.13,0,0,1,.9,1.1,3.88,3.88,0,0,1,.1,2.6,3.13,3.13,0,0,1-.5,1,2.36,2.36,0,0,1-.9.8,6.12,6.12,0,0,1-1.2.5,1.38,1.38,0,0,1,.4.3c.1.1.2.3.3.4Zm-6-6.5a2,2,0,0,0,1.1-.2,2,2,0,0,0,.8-.4,1.79,1.79,0,0,0,.5-.7,2.92,2.92,0,0,0,.2-.9,2,2,0,0,0-.6-1.5,2.62,2.62,0,0,0-1.9-.5H72.2v4.1Z"/><path d="M120.3,141.3c.1,0,.2.1.3.1l.9,1a4.5,4.5,0,0,1-1.9,1.4,5.92,5.92,0,0,1-2.7.5,7,7,0,0,1-2.5-.5,5,5,0,0,1-1.9-1.3,8.17,8.17,0,0,1-1.2-2,7.46,7.46,0,0,1-.4-2.6,7.83,7.83,0,0,1,.4-2.6,6.25,6.25,0,0,1,1.3-2,5.86,5.86,0,0,1,1.9-1.3,7,7,0,0,1,2.5-.5,6.37,6.37,0,0,1,2.4.4,5.67,5.67,0,0,1,1.8,1.2l-.8,1.1c0,.1-.1.1-.2.2a.5.5,0,0,1-.6,0l-.3-.2-.4-.2c-.2-.1-.3-.2-.5-.2a3.9,3.9,0,0,0-3,0,2.73,2.73,0,0,0-1.2.9,6.38,6.38,0,0,0-.8,1.4,5.82,5.82,0,0,0-.3,1.9,6.28,6.28,0,0,0,.3,1.9,3.92,3.92,0,0,0,.8,1.4,2.73,2.73,0,0,0,1.2.9,4,4,0,0,0,1.5.3,2.77,2.77,0,0,0,.9-.1,1.85,1.85,0,0,0,.7-.2l.6-.3c.2-.1.4-.3.6-.4s.1-.1.2-.1S120.2,141.4,120.3,141.3Z"/><path d="M164.6,131.8v12.4h-2.3v-5.4h-5.9v5.4h-2.3V131.8h2.3v5.4h5.9v-5.4Z"/><path d="M200.7,144.2h-2.3V131.8h2.3Z"/><path d="M243.2,133.7h-3.8v10.5h-2.3V133.7h-3.8v-1.9h9.8v1.9Z"/><path d="M278.1,133.7v3.5h4.4V139h-4.4v3.5h5.5v1.8h-7.9V131.9h7.9v1.8Z"/><path d="M325,141.3c.1,0,.2.1.3.1l.9,1a4.5,4.5,0,0,1-1.9,1.4,5.92,5.92,0,0,1-2.7.5,5.34,5.34,0,0,1-2.5-.5,5,5,0,0,1-1.9-1.3,5.93,5.93,0,0,1-1.2-2,7.46,7.46,0,0,1-.4-2.6,7.83,7.83,0,0,1,.4-2.6,6.25,6.25,0,0,1,1.3-2,5,5,0,0,1,1.9-1.3,7,7,0,0,1,2.5-.5,6.37,6.37,0,0,1,2.4.4,5.67,5.67,0,0,1,1.8,1.2l-.8,1.1c0,.1-.1.1-.2.2a.5.5,0,0,1-.6,0l-.3-.2-.4-.2c-.2-.1-.3-.2-.5-.2a3.9,3.9,0,0,0-3,0,2.73,2.73,0,0,0-1.2.9,6.38,6.38,0,0,0-.8,1.4,5.82,5.82,0,0,0-.3,1.9,6.28,6.28,0,0,0,.3,1.9,6.38,6.38,0,0,0,.8,1.4,2.73,2.73,0,0,0,1.2.9,4,4,0,0,0,1.5.3,2.77,2.77,0,0,0,.9-.1,1.85,1.85,0,0,0,.7-.2l.6-.3c.2-.1.4-.3.6-.4s.1-.1.2-.1S324.9,141.4,325,141.3Z"/><path d="M367.5,133.7h-3.8v10.5h-2.3V133.7h-3.8v-1.9h9.8v1.9Z"/></svg>